<svg width="35" height="35" fill="none" xmlns="http://www.w3.org/2000/svg"><g clip-path="url(#clip0_757_919)"><path d="M29.304 9.944l2.352-2.35c.57-.57.57-1.492 0-2.063a1.457 1.457 0 00-2.062 0l-2.352 2.351a15.24 15.24 0 00-8.284-3.433V2.917h2.917a1.458 1.458 0 100-2.917h-8.75a1.458 1.458 0 100 2.917h2.917v1.532C8.28 5.186 2.187 11.737 2.187 19.688 2.188 28.13 9.058 35 17.5 35c8.444 0 15.313-6.869 15.313-15.313 0-3.698-1.319-7.093-3.51-9.743zm-10.346 9.743a1.458 1.458 0 11-2.916 0v-8.02a1.458 1.458 0 112.916 0v8.02z" fill="#2405F2"/></g><defs><clipPath id="clip0_757_919"><path fill="#fff" d="M0 0h35v35H0z"/></clipPath></defs></svg>