<svg width="35" height="35" fill="none" xmlns="http://www.w3.org/2000/svg"><g clip-path="url(#clip0_757_984)" fill="#2405F2"><path d="M35 23.686c0-4.343-2.492-8.22-6.224-10.105-.116 8.328-6.867 15.08-15.195 15.195C15.467 32.508 19.343 35 23.686 35a11.28 11.28 0 005.757-1.572l5.507 1.523-1.523-5.507a11.273 11.273 0 001.572-5.757z"/><path d="M26.729 13.364C26.729 5.995 20.733 0 13.364 0S0 5.995 0 13.364c0 2.402.64 4.74 1.853 6.793L.05 26.68l6.522-1.804a13.323 13.323 0 006.793 1.854c7.37 0 13.364-5.995 13.364-13.365zm-15.415-3.11H9.262a4.106 4.106 0 014.101-4.102 4.106 4.106 0 014.102 4.102 4.112 4.112 0 01-1.334 3.027l-1.742 1.594v1.6h-2.051v-2.503l2.409-2.204a2.03 2.03 0 00.667-1.514 2.052 2.052 0 00-4.102 0zm1.025 8.271h2.05v2.051h-2.05v-2.05z"/></g><defs><clipPath id="clip0_757_984"><path fill="#fff" d="M0 0h35v35H0z"/></clipPath></defs></svg>