<svg width="35" height="35" fill="none" xmlns="http://www.w3.org/2000/svg"><path d="M8.806 27.508c-.4.4-.4 1.05 0 1.45l2.659 2.658-3.016 3.015c-.4.4-1.05.4-1.45 0L.232 27.864c-.4-.4-.4-1.05 0-1.45L26.414.232c.4-.4 1.05-.4 1.45 0l6.767 6.767a1.022 1.022 0 010 1.45l-3.015 3.016-3.625-3.626a1.025 1.025 0 10-1.45 1.45l3.625 3.626-2.29 2.29-2.659-2.659a1.026 1.026 0 00-1.45 1.45l2.659 2.659-2.29 2.29-3.626-3.625a1.026 1.026 0 00-1.45 1.45l3.625 3.625-2.29 2.29-2.658-2.658a1.025 1.025 0 00-1.45 1.45l2.658 2.658-2.29 2.29L13.03 22.8a1.026 1.026 0 00-1.45 1.45l3.625 3.626-2.29 2.29-2.659-2.659c-.4-.4-1.05-.4-1.45 0z" fill="#2405F2"/></svg>