<svg width="639" height="409" fill="none" xmlns="http://www.w3.org/2000/svg"><path fill-rule="evenodd" clip-rule="evenodd" d="M199.77 261.797H13.318c-6.13 0-11.098 4.024-11.098 8.987v111.432c0 4.963 4.969 8.987 11.098 8.987H199.77c6.13 0 11.099-4.024 11.099-8.987V270.784c0-4.963-4.969-8.987-11.099-8.987zM13.318 260C5.963 260 0 264.828 0 270.784v111.432C0 388.172 5.963 393 13.318 393H199.77c7.356 0 13.318-4.828 13.318-10.784V270.784c0-5.956-5.962-10.784-13.318-10.784H13.318z" fill="url(#paint0_linear_779_520)"/><path d="M17.23 281.506c0-1.979 1.735-3.584 3.877-3.584h143.879c2.141 0 3.877 1.605 3.877 3.584 0 1.98-1.736 3.584-3.877 3.584H21.106c-2.14 0-3.877-1.604-3.877-3.584z" fill="url(#paint1_linear_779_520)"/><path d="M17.23 299.426c0-1.979 1.735-3.584 3.877-3.584H67.63c2.142 0 3.877 1.605 3.877 3.584 0 1.98-1.736 3.584-3.877 3.584H21.107c-2.142 0-3.877-1.604-3.877-3.584z" fill="url(#paint2_linear_779_520)"/><path d="M78.401 299.426c0-1.979 1.736-3.584 3.877-3.584h18.093c2.141 0 3.877 1.605 3.877 3.584 0 1.98-1.736 3.584-3.877 3.584H82.278c-2.14 0-3.877-1.604-3.877-3.584z" fill="url(#paint3_linear_779_520)"/><path d="M17.23 371.112c0-1.98 1.735-3.585 3.877-3.585H67.63c2.142 0 3.877 1.605 3.877 3.585 0 1.979-1.736 3.584-3.877 3.584H21.107c-2.142 0-3.877-1.605-3.877-3.584z" fill="url(#paint4_linear_779_520)"/><path d="M78.401 371.112c0-1.98 1.736-3.585 3.877-3.585h18.093c2.141 0 3.877 1.605 3.877 3.585 0 1.979-1.736 3.584-3.877 3.584H82.278c-2.14 0-3.877-1.605-3.877-3.584z" fill="url(#paint5_linear_779_520)"/><path d="M48.245 335.27c0-1.98 1.736-3.584 3.877-3.584h12.923c2.142 0 3.877 1.604 3.877 3.584 0 1.979-1.735 3.584-3.877 3.584H52.122c-2.141 0-3.877-1.605-3.877-3.584z" fill="url(#paint6_linear_779_520)"/><path d="M76.678 335.27c0-1.98 1.736-3.584 3.877-3.584h55.139c2.141 0 3.877 1.604 3.877 3.584 0 1.979-1.736 3.584-3.877 3.584h-55.14c-2.14 0-3.876-1.605-3.876-3.584z" fill="url(#paint7_linear_779_520)"/><path d="M17.23 335.27c0-1.98 1.735-3.584 3.877-3.584h18.092c2.141 0 3.877 1.604 3.877 3.584 0 1.979-1.736 3.584-3.877 3.584H21.107c-2.142 0-3.877-1.605-3.877-3.584z" fill="url(#paint8_linear_779_520)"/><path d="M17.23 317.348c0-1.98 1.735-3.584 3.877-3.584H84c2.141 0 3.877 1.604 3.877 3.584 0 1.979-1.736 3.584-3.877 3.584H21.106c-2.14 0-3.877-1.605-3.877-3.584z" fill="url(#paint9_linear_779_520)"/><path d="M93.907 317.348c0-1.98 1.736-3.584 3.877-3.584h29.293c2.141 0 3.877 1.604 3.877 3.584 0 1.979-1.736 3.584-3.877 3.584H97.784c-2.141 0-3.877-1.605-3.877-3.584z" fill="url(#paint10_linear_779_520)"/><path d="M17.23 353.192c0-1.98 1.735-3.585 3.877-3.585H84c2.141 0 3.877 1.605 3.877 3.585 0 1.979-1.736 3.584-3.877 3.584H21.106c-2.14 0-3.877-1.605-3.877-3.584z" fill="url(#paint11_linear_779_520)"/><path d="M88.697 17.025C88.697 7.622 96.942 0 107.113 0h480.746c10.171 0 18.416 7.622 18.416 17.025V344.09c0 9.403-8.245 17.025-18.416 17.025H107.113c-10.17 0-18.416-7.622-18.416-17.025V17.025z" fill="url(#paint12_linear_779_520)"/><path fill-rule="evenodd" clip-rule="evenodd" d="M587.591 1.792H106.845c-9.1 0-16.477 6.82-16.477 15.233V344.09c0 8.413 7.377 15.233 16.477 15.233h480.746c9.1 0 16.477-6.82 16.477-15.233V17.025c0-8.413-7.377-15.233-16.477-15.233zM106.845 0C96.675 0 88.43 7.622 88.43 17.025V344.09c0 9.403 8.245 17.025 18.415 17.025h480.746c10.171 0 18.416-7.622 18.416-17.025V17.025C606.007 7.622 597.762 0 587.591 0H106.845z" fill="url(#paint13_linear_779_520)"/><path d="M100.06 33.603c0-10.145 8.895-18.37 19.869-18.37h446.822c10.974 0 19.87 8.225 19.87 18.37 0 10.145-8.896 18.37-19.87 18.37H119.929c-10.974 0-19.869-8.225-19.869-18.37z" fill="url(#paint14_linear_779_520)"/><path fill-rule="evenodd" clip-rule="evenodd" d="M572.946 72.797H386.494c-6.13 0-11.099 4.024-11.099 8.987v111.432c0 4.963 4.969 8.987 11.099 8.987h186.452c6.13 0 11.098-4.024 11.098-8.987V81.784c0-4.963-4.968-8.987-11.098-8.987zM386.494 71c-7.356 0-13.318 4.828-13.318 10.784v111.432c0 5.956 5.962 10.784 13.318 10.784h186.452c7.355 0 13.318-4.828 13.318-10.784V81.784c0-5.956-5.963-10.784-13.318-10.784H386.494z" fill="url(#paint15_linear_779_520)"/><path d="M390.405 92.506c0-1.98 1.736-3.584 3.877-3.584h143.879c2.142 0 3.877 1.605 3.877 3.584 0 1.98-1.735 3.584-3.877 3.584H394.282c-2.141 0-3.877-1.604-3.877-3.584z" fill="url(#paint16_linear_779_520)"/><path d="M390.405 110.426c0-1.979 1.736-3.584 3.877-3.584h46.524c2.141 0 3.877 1.605 3.877 3.584 0 1.98-1.736 3.584-3.877 3.584h-46.524c-2.141 0-3.877-1.604-3.877-3.584z" fill="url(#paint17_linear_779_520)"/><path d="M451.571 110.426c0-1.979 1.736-3.584 3.877-3.584h18.093c2.141 0 3.877 1.605 3.877 3.584 0 1.98-1.736 3.584-3.877 3.584h-18.093c-2.141 0-3.877-1.604-3.877-3.584z" fill="url(#paint18_linear_779_520)"/><path d="M390.405 182.112c0-1.98 1.736-3.585 3.877-3.585h46.524c2.141 0 3.877 1.605 3.877 3.585 0 1.979-1.736 3.584-3.877 3.584h-46.524c-2.141 0-3.877-1.605-3.877-3.584z" fill="url(#paint19_linear_779_520)"/><path d="M451.571 182.112c0-1.98 1.736-3.585 3.877-3.585h18.093c2.141 0 3.877 1.605 3.877 3.585 0 1.979-1.736 3.584-3.877 3.584h-18.093c-2.141 0-3.877-1.605-3.877-3.584z" fill="url(#paint20_linear_779_520)"/><path d="M421.422 146.27c0-1.98 1.736-3.584 3.877-3.584h12.923c2.141 0 3.877 1.604 3.877 3.584 0 1.979-1.736 3.584-3.877 3.584h-12.923c-2.141 0-3.877-1.605-3.877-3.584z" fill="url(#paint21_linear_779_520)"/><path d="M449.854 146.27c0-1.98 1.736-3.584 3.877-3.584h55.14c2.141 0 3.877 1.604 3.877 3.584 0 1.979-1.736 3.584-3.877 3.584h-55.14c-2.141 0-3.877-1.605-3.877-3.584z" fill="url(#paint22_linear_779_520)"/><path d="M390.405 146.27c0-1.98 1.736-3.584 3.877-3.584h18.093c2.141 0 3.877 1.604 3.877 3.584 0 1.979-1.736 3.584-3.877 3.584h-18.093c-2.141 0-3.877-1.605-3.877-3.584z" fill="url(#paint23_linear_779_520)"/><path d="M390.405 128.348c0-1.98 1.736-3.584 3.877-3.584h62.894c2.141 0 3.877 1.604 3.877 3.584 0 1.979-1.736 3.584-3.877 3.584h-62.894c-2.141 0-3.877-1.605-3.877-3.584z" fill="url(#paint24_linear_779_520)"/><path d="M467.084 128.348c0-1.98 1.736-3.584 3.877-3.584h29.293c2.141 0 3.877 1.604 3.877 3.584 0 1.979-1.736 3.584-3.877 3.584h-29.293c-2.141 0-3.877-1.605-3.877-3.584z" fill="url(#paint25_linear_779_520)"/><path d="M390.405 164.192c0-1.98 1.736-3.585 3.877-3.585h62.894c2.141 0 3.877 1.605 3.877 3.585 0 1.979-1.736 3.584-3.877 3.584h-62.894c-2.141 0-3.877-1.605-3.877-3.584z" fill="url(#paint26_linear_779_520)"/><path d="M135.579 33.804c0 3.394-2.976 6.145-6.648 6.145-3.671 0-6.648-2.751-6.648-6.145 0-3.393 2.977-6.144 6.648-6.144 3.672 0 6.648 2.751 6.648 6.144z" fill="#FED280"/><path d="M158.85 33.804c0 3.394-2.977 6.145-6.648 6.145-3.672 0-6.648-2.751-6.648-6.145 0-3.393 2.976-6.144 6.648-6.144 3.671 0 6.648 2.751 6.648 6.144z" fill="#8CFEE3" fill-opacity=".9"/><path d="M182.116 33.804c0 3.394-2.976 6.145-6.648 6.145-3.671 0-6.648-2.751-6.648-6.145 0-3.393 2.977-6.144 6.648-6.144 3.672 0 6.648 2.751 6.648 6.144z" fill="#FF8DA9" fill-opacity=".9"/><rect x="111.413" y="71" width="245.538" height="133" rx="13" fill="url(#paint27_linear_779_520)"/><rect x="111.413" y="219" width="474.852" height="118" rx="13" fill="url(#paint28_linear_779_520)"/><rect x="128.718" y="81" width="68.145" height="54" rx="6" fill="url(#paint29_linear_779_520)"/><rect x="205.515" y="81" width="135.208" height="54" rx="6" fill="url(#paint30_linear_779_520)"/><rect x="205.515" y="141" width="62.737" height="54" rx="6" fill="url(#paint31_linear_779_520)"/><rect x="273.663" y="141" width="62.737" height="54" rx="6" fill="url(#paint32_linear_779_520)"/><rect x="128.718" y="141" width="68.145" height="8" rx="4" fill="#303262" fill-opacity=".5"/><rect x="128.718" y="172" width="68.145" height="8" rx="4" fill="#303262" fill-opacity=".5"/><rect x="128.718" y="156" width="68.145" height="8" rx="4" fill="#303262" fill-opacity=".5"/><rect x="128.718" y="187" width="68.145" height="8" rx="4" fill="#303262" fill-opacity=".5"/><path fill-rule="evenodd" clip-rule="evenodd" d="M576.263 370.326c-11.545 0-20.904-8.653-20.904-19.326s9.359-19.326 20.904-19.326 20.904 8.653 20.904 19.326-9.359 19.326-20.904 19.326zM639 359.742v-17.484l-14.906-3.502a43.722 43.722 0 00-4.647-10.364l7.864-12.223-13.373-12.363-13.221 7.27a51.667 51.667 0 00-11.21-4.296L585.719 293h-18.912l-3.787 13.78a51.636 51.636 0 00-11.211 4.296l-13.221-7.27-13.373 12.363 7.863 12.223a43.8 43.8 0 00-4.646 10.364l-14.906 3.502v17.484l14.906 3.502a43.8 43.8 0 004.646 10.364l-7.863 12.223 13.373 12.363 13.221-7.27a51.636 51.636 0 0011.211 4.296l3.787 13.78h18.912l3.788-13.78a51.667 51.667 0 0011.21-4.296l13.221 7.27 13.373-12.363-7.864-12.223a43.722 43.722 0 004.647-10.364L639 359.742z" fill="#FCD980"/><defs><linearGradient id="paint0_linear_779_520" x1="106.544" y1="260" x2="182.545" y2="601.572" gradientUnits="userSpaceOnUse"><stop stop-color="#fff" stop-opacity=".17"/><stop offset="1" stop-opacity="0"/></linearGradient><linearGradient id="paint1_linear_779_520" x1="93.046" y1="277.922" x2="101.242" y2="321.574" gradientUnits="userSpaceOnUse"><stop stop-color="#fff" stop-opacity=".56"/><stop offset="1" stop-color="#C4C4C4" stop-opacity="0"/></linearGradient><linearGradient id="paint2_linear_779_520" x1="44.368" y1="295.842" x2="62.958" y2="331.282" gradientUnits="userSpaceOnUse"><stop stop-color="#F9C746" stop-opacity=".52"/><stop offset="1" stop-color="#C4C4C4" stop-opacity="0"/></linearGradient><linearGradient id="paint3_linear_779_520" x1="91.325" y1="295.842" x2="113.815" y2="316.26" gradientUnits="userSpaceOnUse"><stop stop-color="#84EBE5" stop-opacity=".62"/><stop offset="1" stop-color="#C4C4C4" stop-opacity="0"/></linearGradient><linearGradient id="paint4_linear_779_520" x1="44.368" y1="367.527" x2="62.958" y2="402.968" gradientUnits="userSpaceOnUse"><stop stop-color="#fff" stop-opacity=".56"/><stop offset="1" stop-color="#C4C4C4" stop-opacity="0"/></linearGradient><linearGradient id="paint5_linear_779_520" x1="91.325" y1="367.527" x2="113.815" y2="387.945" gradientUnits="userSpaceOnUse"><stop stop-color="#F47D9E"/><stop offset="1" stop-color="#C4C4C4" stop-opacity="0"/></linearGradient><linearGradient id="paint6_linear_779_520" x1="58.584" y1="331.686" x2="80.071" y2="347.291" gradientUnits="userSpaceOnUse"><stop stop-color="#F2C87D"/><stop offset="1" stop-color="#C4C4C4" stop-opacity="0"/></linearGradient><linearGradient id="paint7_linear_779_520" x1="108.124" y1="331.686" x2="125.102" y2="369.191" gradientUnits="userSpaceOnUse"><stop stop-color="#fff" stop-opacity=".62"/><stop offset="1" stop-color="#C4C4C4" stop-opacity="0"/></linearGradient><linearGradient id="paint8_linear_779_520" x1="24.122" y1="329.893" x2="63.663" y2="335.933" gradientUnits="userSpaceOnUse"><stop stop-color="#F37D9D"/><stop offset="1" stop-color="#C4C4C4" stop-opacity="0"/></linearGradient><linearGradient id="paint9_linear_779_520" x1="52.553" y1="313.764" x2="68.22" y2="352.641" gradientUnits="userSpaceOnUse"><stop stop-color="#fff" stop-opacity=".58"/><stop offset="1" stop-color="#C4C4C4" stop-opacity="0"/></linearGradient><linearGradient id="paint10_linear_779_520" x1="112.431" y1="313.764" x2="134.265" y2="342.175" gradientUnits="userSpaceOnUse"><stop stop-color="#fff" stop-opacity=".45"/><stop offset="1" stop-color="#C4C4C4" stop-opacity="0"/></linearGradient><linearGradient id="paint11_linear_779_520" x1="52.553" y1="349.607" x2="68.22" y2="388.485" gradientUnits="userSpaceOnUse"><stop stop-color="#70D1E7"/><stop offset="1" stop-color="#C4C4C4" stop-opacity="0"/></linearGradient><linearGradient id="paint12_linear_779_520" x1="347.486" y1="0" x2="462.406" y2="528.848" gradientUnits="userSpaceOnUse"><stop stop-color="#fff" stop-opacity=".16"/><stop offset="1" stop-color="#C4C4C4" stop-opacity="0"/></linearGradient><linearGradient id="paint13_linear_779_520" x1="347.218" y1="0" x2="693.624" y2="270.314" gradientUnits="userSpaceOnUse"><stop stop-color="#fff" stop-opacity=".17"/><stop offset="1" stop-opacity="0"/></linearGradient><linearGradient id="paint14_linear_779_520" x1="343.34" y1="15.233" x2="407.063" y2="227.727" gradientUnits="userSpaceOnUse"><stop stop-color="#fff" stop-opacity=".15"/><stop offset="1" stop-color="#C4C4C4" stop-opacity="0"/></linearGradient><linearGradient id="paint15_linear_779_520" x1="479.72" y1="71" x2="555.721" y2="412.572" gradientUnits="userSpaceOnUse"><stop stop-color="#fff" stop-opacity=".17"/><stop offset="1" stop-opacity="0"/></linearGradient><linearGradient id="paint16_linear_779_520" x1="466.222" y1="88.922" x2="474.418" y2="132.574" gradientUnits="userSpaceOnUse"><stop stop-color="#fff" stop-opacity=".56"/><stop offset="1" stop-color="#C4C4C4" stop-opacity="0"/></linearGradient><linearGradient id="paint17_linear_779_520" x1="417.544" y1="106.842" x2="436.134" y2="142.282" gradientUnits="userSpaceOnUse"><stop stop-color="#F9C746" stop-opacity=".52"/><stop offset="1" stop-color="#C4C4C4" stop-opacity="0"/></linearGradient><linearGradient id="paint18_linear_779_520" x1="464.495" y1="106.842" x2="486.985" y2="127.26" gradientUnits="userSpaceOnUse"><stop stop-color="#84EBE5" stop-opacity=".62"/><stop offset="1" stop-color="#C4C4C4" stop-opacity="0"/></linearGradient><linearGradient id="paint19_linear_779_520" x1="417.544" y1="178.527" x2="436.134" y2="213.968" gradientUnits="userSpaceOnUse"><stop stop-color="#fff" stop-opacity=".56"/><stop offset="1" stop-color="#C4C4C4" stop-opacity="0"/></linearGradient><linearGradient id="paint20_linear_779_520" x1="464.495" y1="178.527" x2="486.985" y2="198.945" gradientUnits="userSpaceOnUse"><stop stop-color="#F47D9E"/><stop offset="1" stop-color="#C4C4C4" stop-opacity="0"/></linearGradient><linearGradient id="paint21_linear_779_520" x1="431.761" y1="142.686" x2="453.248" y2="158.291" gradientUnits="userSpaceOnUse"><stop stop-color="#F2C87D"/><stop offset="1" stop-color="#C4C4C4" stop-opacity="0"/></linearGradient><linearGradient id="paint22_linear_779_520" x1="481.301" y1="142.686" x2="498.279" y2="180.191" gradientUnits="userSpaceOnUse"><stop stop-color="#fff" stop-opacity=".62"/><stop offset="1" stop-color="#C4C4C4" stop-opacity="0"/></linearGradient><linearGradient id="paint23_linear_779_520" x1="397.298" y1="140.893" x2="436.839" y2="146.933" gradientUnits="userSpaceOnUse"><stop stop-color="#F37D9D"/><stop offset="1" stop-color="#C4C4C4" stop-opacity="0"/></linearGradient><linearGradient id="paint24_linear_779_520" x1="425.729" y1="124.764" x2="441.396" y2="163.641" gradientUnits="userSpaceOnUse"><stop stop-color="#fff" stop-opacity=".58"/><stop offset="1" stop-color="#C4C4C4" stop-opacity="0"/></linearGradient><linearGradient id="paint25_linear_779_520" x1="485.607" y1="124.764" x2="507.441" y2="153.175" gradientUnits="userSpaceOnUse"><stop stop-color="#fff" stop-opacity=".45"/><stop offset="1" stop-color="#C4C4C4" stop-opacity="0"/></linearGradient><linearGradient id="paint26_linear_779_520" x1="425.729" y1="160.607" x2="441.396" y2="199.485" gradientUnits="userSpaceOnUse"><stop stop-color="#70D1E7"/><stop offset="1" stop-color="#C4C4C4" stop-opacity="0"/></linearGradient><linearGradient id="paint27_linear_779_520" x1="177.477" y1="16.72" x2="240.051" y2="266.755" gradientUnits="userSpaceOnUse"><stop stop-color="#fff" stop-opacity=".31"/><stop offset="1" stop-color="#fff" stop-opacity="0"/></linearGradient><linearGradient id="paint28_linear_779_520" x1="177.395" y1="-59" x2="65.144" y2="336.274" gradientUnits="userSpaceOnUse"><stop stop-color="#fff" stop-opacity=".31"/><stop offset="1" stop-color="#fff" stop-opacity="0"/></linearGradient><linearGradient id="paint29_linear_779_520" x1="147.053" y1="58.962" x2="181.88" y2="154.087" gradientUnits="userSpaceOnUse"><stop stop-color="#fff" stop-opacity=".31"/><stop offset="1" stop-color="#fff" stop-opacity="0"/></linearGradient><linearGradient id="paint30_linear_779_520" x1="241.894" y1="58.962" x2="261.144" y2="163.285" gradientUnits="userSpaceOnUse"><stop stop-color="#fff" stop-opacity=".31"/><stop offset="1" stop-color="#fff" stop-opacity="0"/></linearGradient><linearGradient id="paint31_linear_779_520" x1="222.394" y1="118.962" x2="259.436" y2="212.107" gradientUnits="userSpaceOnUse"><stop stop-color="#fff" stop-opacity=".31"/><stop offset="1" stop-color="#fff" stop-opacity="0"/></linearGradient><linearGradient id="paint32_linear_779_520" x1="290.543" y1="118.962" x2="327.585" y2="212.107" gradientUnits="userSpaceOnUse"><stop stop-color="#fff" stop-opacity=".31"/><stop offset="1" stop-color="#fff" stop-opacity="0"/></linearGradient></defs></svg>