<svg width="122" height="25" fill="none" xmlns="http://www.w3.org/2000/svg"><g clip-path="url(#clip0_1401_834)" fill="#fff"><path d="M121.784 18.872v3.019h-2.533c-2.702-.085-4.146-1.544-4.146-4.285V10.71h-1.769V8.062h1.769V5.097h3.737V8.03h2.857v2.64h-2.857v6.564c0 .888.177 1.598 1.544 1.598l1.398.039zm-23.342-3.869v-.2a6.756 6.756 0 016.462-7.058h.541c3.529 0 6.625 2.054 6.625 6.95v1.042h-9.806c.1 2.255 1.32 3.529 3.374 3.529 1.768 0 2.594-.772 2.834-1.9h3.529c-.433 2.942-2.78 4.579-6.494 4.579-4.077-.03-7.065-2.61-7.065-6.942zm9.953-1.629c-.132-2.054-1.166-3.042-2.965-3.042-1.8 0-2.834 1.112-3.089 3.042h6.054zm-25.211 1.629v-.2a6.755 6.755 0 016.447-7.058h.54c3.53 0 6.633 2.054 6.633 6.95v1.042h-9.798c.1 2.255 1.32 3.529 3.374 3.529 1.769 0 2.595-.772 2.834-1.9h3.529c-.44 2.942-2.788 4.579-6.502 4.579-4.069-.03-7.057-2.61-7.057-6.942zm9.953-1.629c-.132-2.054-1.166-3.042-2.965-3.042-1.8 0-2.803 1.143-3.089 3.034l6.054.008zM61.772 8.03h3.953l2.417 9.158 2.649-9.158h3.088l2.394 9.158 2.548-9.158h3.621L78.15 21.636h-3.706l-2.317-8.54-2.478 8.54h-3.753L61.772 8.03zM49.21 17.358h3.528c.162 1.228.772 1.93 2.394 1.93 1.452 0 2.123-.548 2.123-1.482 0-.934-.772-1.328-2.749-1.606-3.621-.548-5.019-1.59-5.019-4.247 0-2.834 2.595-4.24 5.405-4.24 3.02 0 5.297 1.097 5.622 4.224H57.03a1.84 1.84 0 00-2.015-1.66H54.9c-1.22 0-1.93.572-1.93 1.406s.656 1.197 2.648 1.482c3.382.51 5.274 1.367 5.274 4.278 0 2.911-2.139 4.47-5.722 4.47-3.582 0-5.86-1.613-5.96-4.555zM34.214 8.03h3.737v2.154a4.679 4.679 0 014.41-2.47c2.648 0 4.57 1.613 4.57 5.296v8.656h-3.69v-8.115c0-1.846-.719-2.726-2.387-2.726a2.687 2.687 0 00-2.91 2.456c-.02.164-.02.33 0 .494v7.86h-3.73V8.03zm-7.212-3.42a1.884 1.884 0 111.946 1.814h-.07a1.761 1.761 0 01-1.868-1.652 1.141 1.141 0 01-.008-.162zm0 3.42h3.776v13.606h-3.76L27.002 8.03zM12.771 3.042H24.71v3.297h-7.722v4.919h6.116v3.173H16.98v7.204h-4.21V3.042zM5.567 9.127c0 1.166 0 2.586-1.606 3.166 1.645.563 1.606 1.76 1.606 3.011v4.633c0 .88.355 1.413.989 1.544.139.047.285.068.432.062h1.544v3.089H5.984c-2.718 0-4.216-1.545-4.216-4.41V14.74a1.127 1.127 0 00-1.104-1.05H0v-2.71h.664a1.12 1.12 0 001.104-1.081v-5.56C1.768 1.521 3.235 0 5.984 0h2.571v3.042H7.011c-.147 0-.293.024-.432.07-.633.162-.989.687-.989 1.544l-.023 4.47z"/></g><defs><clipPath id="clip0_1401_834"><path fill="#fff" d="M0 0h122v24.709H0z"/></clipPath></defs></svg>