<svg width="50" height="50" fill="none" xmlns="http://www.w3.org/2000/svg"><rect width="50" height="50" rx="8" fill="#2405F2"/><mask id="mask0_706_725" style="mask-type:alpha" maskUnits="userSpaceOnUse" x="0" y="0" width="50" height="50"><rect width="50" height="50" rx="8" fill="#5C5E84"/></mask><g mask="url(#mask0_706_725)"><rect x="-26" y="27" width="50" height="50" rx="8" fill="#FCD980"/><rect x="8" y="-9" width="50" height="50" rx="8" fill="#5239FA"/></g><path d="M16.08 24.268c0 3.816 1.008 6.696 4.68 6.696 3.672 0 4.68-2.88 4.68-6.696 0-3.744-1.008-6.624-4.68-6.624-3.672 0-4.68 2.88-4.68 6.624zm7.344 0c0 2.574-.27 4.824-2.664 4.824s-2.664-2.25-2.664-4.824c0-2.448.27-4.752 2.664-4.752s2.664 2.304 2.664 4.752zM33.875 31h2.016v-2.736h1.674v-1.782h-1.674V18.04h-2.484l-6.048 8.676v1.548h6.516V31zm-4.158-4.518l4.248-6.354v6.354h-4.248z" fill="#fff"/></svg>