<svg width="50" height="50" fill="none" xmlns="http://www.w3.org/2000/svg"><rect width="50" height="50" rx="8" fill="#2405F2"/><mask id="mask0_706_686" style="mask-type:alpha" maskUnits="userSpaceOnUse" x="0" y="0" width="50" height="50"><rect width="50" height="50" rx="8" fill="#5C5E84"/></mask><g mask="url(#mask0_706_686)"><rect x="-26" y="27" width="50" height="50" rx="8" fill="#FCD980"/><rect x="8" y="-9" width="50" height="50" rx="8" fill="#5239FA"/></g><path d="M15.936 24.556c0 2.028.36 3.618 1.08 4.77.72 1.14 1.92 1.71 3.6 1.71 1.68 0 2.88-.576 3.6-1.728.72-1.152 1.08-2.736 1.08-4.752 0-2.004-.36-3.576-1.08-4.716-.72-1.152-1.92-1.728-3.6-1.728-1.68 0-2.88.57-3.6 1.71-.72 1.14-1.08 2.718-1.08 4.734zm7.308 0c0 1.464-.18 2.586-.54 3.366-.36.78-1.056 1.17-2.088 1.17-1.044 0-1.746-.39-2.106-1.17-.36-.78-.54-1.902-.54-3.366 0-1.452.18-2.562.54-3.33.36-.768 1.062-1.152 2.106-1.152 1.032 0 1.728.39 2.088 1.17.36.768.54 1.872.54 3.312zm3.205-4.338v-1.926h4.068V31h-2.16V20.218h-1.908z" fill="#fff"/></svg>