<svg width="50" height="50" fill="none" xmlns="http://www.w3.org/2000/svg"><rect width="50" height="50" rx="8" fill="#2405F2"/><mask id="mask0_706_712" style="mask-type:alpha" maskUnits="userSpaceOnUse" x="0" y="0" width="50" height="50"><rect width="50" height="50" rx="8" fill="#5C5E84"/></mask><g mask="url(#mask0_706_712)"><rect x="-26" y="27" width="50" height="50" rx="8" fill="#FCD980"/><rect x="8" y="-9" width="50" height="50" rx="8" fill="#5239FA"/></g><path d="M16.08 24.268c0 3.816 1.008 6.696 4.68 6.696 3.672 0 4.68-2.88 4.68-6.696 0-3.744-1.008-6.624-4.68-6.624-3.672 0-4.68 2.88-4.68 6.624zm7.344 0c0 2.574-.27 4.824-2.664 4.824s-2.664-2.25-2.664-4.824c0-2.448.27-4.752 2.664-4.752s2.664 2.304 2.664 4.752zm4.025 6.552h8.748v-1.71h-5.706c2.106-1.926 5.346-4.356 5.346-7.542 0-2.358-1.512-3.96-4.176-3.96-2.322 0-4.158 1.386-4.23 4.23h1.98c.054-1.476.828-2.484 2.268-2.484 1.53 0 2.124.936 2.124 2.304 0 2.574-3.258 4.95-6.354 7.668v1.494z" fill="#fff"/></svg>