<svg width="50" height="50" fill="none" xmlns="http://www.w3.org/2000/svg"><rect width="50" height="50" rx="8" fill="#2405F2"/><mask id="mask0_706_699" style="mask-type:alpha" maskUnits="userSpaceOnUse" x="0" y="0" width="50" height="50"><rect width="50" height="50" rx="8" fill="#5C5E84"/></mask><g mask="url(#mask0_706_699)"><rect x="-26" y="27" width="50" height="50" rx="8" fill="#FCD980"/><rect x="8" y="-9" width="50" height="50" rx="8" fill="#5239FA"/></g><path d="M16.08 24.268c0 3.816 1.008 6.696 4.68 6.696 3.672 0 4.68-2.88 4.68-6.696 0-3.744-1.008-6.624-4.68-6.624-3.672 0-4.68 2.88-4.68 6.624zm7.344 0c0 2.574-.27 4.824-2.664 4.824s-2.664-2.25-2.664-4.824c0-2.448.27-4.752 2.664-4.752s2.664 2.304 2.664 4.752zm4.151-3.15h1.998c.126-.918.792-1.782 2.232-1.782 1.404 0 2.142.756 2.142 1.89 0 1.404-1.134 1.944-2.988 1.962h-.486v1.692h.468c2.142 0 3.258.594 3.258 2.322 0 1.224-.756 2.16-2.286 2.16-1.548 0-2.448-.936-2.538-2.16h-1.98c.126 2.574 2.052 3.87 4.536 3.87 2.736 0 4.212-1.584 4.212-3.672 0-1.818-.882-2.952-2.25-3.366v-.072c1.026-.342 2.016-1.404 2.016-2.97 0-1.908-1.422-3.42-4.032-3.42-2.394 0-4.158 1.278-4.302 3.546z" fill="#fff"/></svg>