<svg width="32" height="32" fill="none" xmlns="http://www.w3.org/2000/svg"><g clip-path="url(#clip0_757_994)" fill="#2405F2"><path d="M2.415 9.044l6.63-6.629L7.938 1.31a4.692 4.692 0 00-6.628 0A4.656 4.656 0 00-.062 4.625a4.65 4.65 0 001.373 3.314l1.104 1.105zm1.326 1.326l2.652-2.65 3.8 3.8-2.652 2.65-3.8-3.799zm3.978-3.977L10.37 3.74l3.8 3.8-2.652 2.651-3.8-3.8zm15.105 21.734l-.437.438 8.265 3.305a.936.936 0 001.218-1.218l-3.306-8.265-5.74 5.74zm-5.119-3.793l2.652-2.651 3.13 3.13-2.652 2.651-3.13-3.13zm3.978-3.977l2.651-2.652 3.13 3.13-2.651 2.652-3.13-3.13zM8.051 25.15a.937.937 0 000 1.325l2.431 2.431-2.757 2.757a.937.937 0 01-1.326 0L.212 25.476a.937.937 0 010-1.326L24.15.212a.937.937 0 011.326 0L31.663 6.4a.935.935 0 010 1.326l-2.757 2.757-3.314-3.315a.937.937 0 10-1.326 1.326l3.314 3.315-2.094 2.094-2.43-2.431a.938.938 0 00-1.326 1.326l2.43 2.43-2.093 2.094-3.315-3.314a.938.938 0 00-1.326 1.326l3.315 3.314-2.094 2.094-2.43-2.43a.937.937 0 10-1.327 1.325l2.431 2.43-2.094 2.095-3.314-3.315a.938.938 0 00-1.326 1.326l3.314 3.314-2.093 2.094-2.431-2.43a.937.937 0 00-1.326 0z"/></g><defs><clipPath id="clip0_757_994"><path fill="#fff" d="M0 0h32v32H0z"/></clipPath></defs></svg>