<svg width="32" height="28" fill="none" xmlns="http://www.w3.org/2000/svg"><path d="M16 10.875A5.437 5.437 0 1016 0a5.437 5.437 0 000 10.875zm11 0A3.437 3.437 0 1027 4a3.437 3.437 0 000 6.875zm-22 0A3.437 3.437 0 105 4a3.437 3.437 0 000 6.875zm3.387 3.086C7.034 12.853 5.808 13 4.244 13 1.904 13 0 14.892 0 17.218v6.825c0 1.01.824 1.832 1.838 1.832 4.377 0 3.85.079 3.85-.19 0-4.836-.573-8.383 2.699-11.723z" fill="#2405F2"/><path d="M17.488 13.025c-2.732-.228-5.108.002-7.157 1.694-3.428 2.746-2.768 6.444-2.768 10.967 0 1.197.973 2.189 2.188 2.189 13.193 0 13.718.425 14.5-1.307.257-.586.186-.4.186-6.004 0-4.452-3.854-7.54-6.949-7.54zM27.756 13c-1.573 0-2.791-.145-4.143.962 3.248 3.316 2.7 6.621 2.7 11.724 0 .27-.438.19 3.783.19 1.05 0 1.904-.851 1.904-1.897v-6.76C32 14.892 30.096 13 27.756 13z" fill="#2405F2"/></svg>