<svg width="32" height="32" fill="none" xmlns="http://www.w3.org/2000/svg"><path d="M24.344 5.464c0-.75-.293-1.458-.824-1.989L20.87.824A2.875 2.875 0 0018.862 0h-.16v5.625h5.642v-.161z" fill="#2405F2"/><path d="M17.121 19.346a3.78 3.78 0 01.9-1.463l6.349-6.322V7.5h-6.588c-.518 0-.907-.42-.907-.938V0H2.812A2.816 2.816 0 000 2.813v26.375A2.816 2.816 0 002.813 32h18.72c1.55 0 2.837-1.262 2.837-2.813v-6.996l-1.03 1.005a3.728 3.728 0 01-1.458.899l-2.981.995-.454.025a2.353 2.353 0 01-1.903-.977 2.35 2.35 0 01-.318-2.111l.895-2.68zM4.688 16.875h9.344a.937.937 0 110 1.875H4.687c-.518 0-.937-.938-.937-.938s.42-.937.938-.937zm-.938-2.813c0-.518.42-.937.938-.937h9.344a.937.937 0 110 1.875H4.687a.937.937 0 01-.937-.938zm0 7.5c0-.518.42-.937.938-.937h9.344a.937.937 0 110 1.875H4.687a.937.937 0 01-.937-.938zm14.032 4.688a.937.937 0 110 1.875h-5.625a.937.937 0 110-1.875h5.625zm-13.095-15a.937.937 0 110-1.875h13.095a.937.937 0 110 1.875H4.687z" fill="#2405F2"/><path d="M18.819 20.176l-.816 2.447a.469.469 0 00.593.592l2.446-.816-2.223-2.223zm7.282-7.719l-6.174 6.174 2.663 2.663 6.174-6.175-2.663-2.662zm5.349-2.69c-.33-.331-.815-.52-1.33-.52-.514 0-1 .189-1.33.521l-1.363 1.362 2.662 2.663 1.363-1.363a1.887 1.887 0 00-.002-2.663z" fill="#2405F2"/></svg>