<svg width="17" height="16" fill="none" xmlns="http://www.w3.org/2000/svg"><g clip-path="url(#clip0_705_528)" fill="#fff"><path d="M8.334 1.44c2.137 0 2.39.01 3.23.048.782.034 1.204.165 1.485.274.372.144.64.32.919.597.281.282.453.547.597.92.11.28.24.705.275 1.484.037.843.047 1.096.047 3.23 0 2.138-.01 2.391-.047 3.232-.035.781-.166 1.203-.275 1.484a2.49 2.49 0 01-.597.92 2.46 2.46 0 01-.919.596c-.281.11-.706.24-1.484.275-.844.037-1.097.047-3.231.047-2.138 0-2.391-.01-3.232-.047-.781-.034-1.203-.166-1.484-.275a2.473 2.473 0 01-.919-.597 2.46 2.46 0 01-.597-.919c-.11-.28-.24-.706-.275-1.484-.037-.844-.047-1.097-.047-3.231 0-2.138.01-2.39.047-3.231.035-.782.166-1.204.275-1.485.144-.372.319-.64.597-.919a2.46 2.46 0 01.919-.597c.281-.109.706-.24 1.484-.274.84-.038 1.094-.047 3.232-.047zm0-1.44C6.162 0 5.89.01 5.037.047c-.85.037-1.435.175-1.941.372a3.905 3.905 0 00-1.419.925 3.92 3.92 0 00-.925 1.415C.555 3.27.418 3.85.38 4.7.343 5.556.333 5.828.333 8c0 2.172.01 2.444.047 3.297.038.85.175 1.434.372 1.94.206.529.478.976.925 1.42.444.443.89.718 1.416.921.51.197 1.09.335 1.94.372.854.038 1.125.047 3.297.047s2.444-.01 3.297-.047c.85-.037 1.435-.175 1.94-.372a3.91 3.91 0 001.416-.922c.444-.444.72-.89.922-1.415.197-.51.335-1.091.372-1.941.038-.853.047-1.125.047-3.297s-.01-2.444-.047-3.297c-.037-.85-.175-1.434-.372-1.94a3.747 3.747 0 00-.915-1.422 3.91 3.91 0 00-1.416-.922c-.51-.197-1.09-.334-1.94-.372-.857-.04-1.129-.05-3.3-.05z"/><path d="M8.334 3.89a4.11 4.11 0 000 8.22 4.11 4.11 0 000-8.22zm0 6.776a2.666 2.666 0 110-5.332 2.666 2.666 0 010 5.332zm5.231-6.938a.96.96 0 11-1.92 0 .96.96 0 011.92 0z"/></g><defs><clipPath id="clip0_705_528"><path fill="#fff" transform="translate(.333)" d="M0 0h16v16H0z"/></clipPath></defs></svg>