<svg width="17" height="16" fill="none" xmlns="http://www.w3.org/2000/svg"><g clip-path="url(#clip0_705_526)"><path d="M5.7 14.5c6.036 0 9.339-5.002 9.339-9.338 0-.14-.003-.285-.01-.425a6.665 6.665 0 001.637-1.7 6.472 6.472 0 01-1.884.516 3.3 3.3 0 001.444-1.815 6.599 6.599 0 01-2.084.796 3.287 3.287 0 00-5.596 2.993A9.323 9.323 0 011.782 2.1a3.286 3.286 0 001.015 4.38 3.287 3.287 0 01-1.487-.409v.04a3.281 3.281 0 002.634 3.22c-.483.132-.99.15-1.48.056a3.289 3.289 0 003.064 2.281 6.583 6.583 0 01-4.861 1.358A9.312 9.312 0 005.7 14.501z" fill="#fff"/></g><defs><clipPath id="clip0_705_526"><path fill="#fff" transform="translate(.667)" d="M0 0h16v16H0z"/></clipPath></defs></svg>