<svg width="138" height="32" viewBox="0 0 138 32" fill="none" xmlns="http://www.w3.org/2000/svg">
<path d="M33.877 7.80566H36.9993V22.9675H33.877V7.80566Z" fill="#282938"/>
<path d="M38.7476 17.7742C38.7476 16.6833 39.0688 15.6171 39.6706 14.7105C40.2724 13.804 41.1276 13.0979 42.1279 12.6819C43.1281 12.2659 44.2284 12.1587 45.2892 12.3738C46.3499 12.589 47.3235 13.1167 48.0864 13.8903C48.8493 14.6638 49.3672 15.6483 49.5745 16.7189C49.7818 17.7896 49.6692 18.8981 49.2508 19.9042C48.8324 20.9102 48.1272 21.7683 47.2245 22.3698C46.3219 22.9713 45.2624 23.2891 44.1804 23.2829C43.4627 23.2885 42.7512 23.1496 42.0875 22.8744C41.4238 22.5992 40.8212 22.1931 40.3152 21.6801C39.8092 21.167 39.4099 20.5572 39.1407 19.8865C38.8715 19.2158 38.7378 18.4976 38.7476 17.7742ZM46.5742 17.7742C46.5619 17.3039 46.4124 16.8477 46.1443 16.4627C45.8762 16.0776 45.5014 15.7808 45.0669 15.6093C44.6323 15.4379 44.1573 15.3995 43.7012 15.4987C43.2451 15.598 42.8281 15.8307 42.5025 16.1676C42.1768 16.5046 41.9569 16.9309 41.8703 17.3931C41.7837 17.8553 41.8342 18.3331 42.0155 18.7666C42.1968 19.2001 42.5008 19.57 42.8896 19.8302C43.2784 20.0905 43.7345 20.2293 44.2012 20.2295C44.519 20.2357 44.8345 20.1758 45.1282 20.0536C45.4219 19.9312 45.6875 19.7492 45.9083 19.5188C46.129 19.2884 46.3002 19.0145 46.4112 18.7143C46.5222 18.4141 46.5706 18.0941 46.5534 17.7742H46.5742Z" fill="#282938"/>
<path d="M61.9667 12.5807V22.4543C61.9667 25.9378 59.2606 27.4173 56.5234 27.4173C55.5579 27.4972 54.5895 27.3038 53.7271 26.859C52.8647 26.414 52.1427 25.7353 51.6421 24.8991L54.2753 23.3672C54.4887 23.8009 54.8281 24.1587 55.2483 24.3931C55.6686 24.6274 56.1496 24.727 56.6275 24.6788C56.9318 24.7165 57.2408 24.6861 57.5321 24.5895C57.8235 24.4929 58.0901 24.3327 58.3128 24.1201C58.5356 23.9076 58.709 23.648 58.8207 23.36C58.9323 23.072 58.9796 22.7628 58.9588 22.4543V21.4994C58.5955 21.9436 58.1344 22.2962 57.6123 22.5294C57.0902 22.7625 56.5213 22.8697 55.951 22.8425C54.5708 22.8425 53.2472 22.2898 52.2713 21.3059C51.2954 20.322 50.7471 18.9876 50.7471 17.5962C50.7471 16.2048 51.2954 14.8704 52.2713 13.8865C53.2472 12.9026 54.5708 12.3498 55.951 12.3498C56.5213 12.3227 57.0902 12.4299 57.6123 12.663C58.1344 12.8961 58.5955 13.2488 58.9588 13.6929V12.6437L61.9667 12.5807ZM58.9588 17.5647C58.9796 17.0627 58.8509 16.566 58.5894 16.1382C58.3278 15.7106 57.9454 15.3715 57.4912 15.1647C57.037 14.9579 56.5317 14.8928 56.0405 14.9778C55.5494 15.0629 55.0946 15.294 54.7348 15.6416C54.375 15.9893 54.1266 16.4375 54.0214 16.9286C53.9163 17.4198 53.9594 17.9314 54.145 18.3977C54.3306 18.864 54.6503 19.2636 55.063 19.5452C55.4757 19.8268 55.9625 19.9776 56.461 19.9781C56.7862 20.0016 57.1127 19.9562 57.4193 19.8447C57.7261 19.7332 58.0062 19.5581 58.2416 19.3307C58.4769 19.1032 58.6624 18.8286 58.786 18.5244C58.9095 18.2202 58.9684 17.8933 58.9588 17.5647Z" fill="#282938"/>
<path d="M63.726 17.7743C63.726 16.6843 64.0466 15.6189 64.6475 14.7128C65.2484 13.8066 66.1024 13.1005 67.1014 12.684C68.1004 12.2673 69.1996 12.1588 70.2599 12.3723C71.32 12.5857 72.2936 13.1114 73.0574 13.8828C73.8211 14.6543 74.3407 15.6367 74.5503 16.706C74.7601 17.7753 74.6503 18.8832 74.2352 19.8896C73.82 20.896 73.1181 21.7556 72.2181 22.3596C71.3182 22.9637 70.2608 23.285 69.1796 23.2829C68.4606 23.2899 67.7474 23.1521 67.0819 22.8777C66.4164 22.6032 65.812 22.1976 65.304 21.6845C64.796 21.1714 64.3948 20.5613 64.1238 19.8898C63.8528 19.2184 63.7176 18.4991 63.726 17.7743ZM71.5526 17.7743C71.5403 17.3035 71.3905 16.8469 71.1219 16.4617C70.8533 16.0765 70.4779 15.7796 70.0428 15.6085C69.6077 15.4374 69.1321 15.3995 68.6758 15.4996C68.2194 15.5998 67.8025 15.8335 67.4772 16.1715C67.152 16.5094 66.9329 16.9367 66.8475 17.3996C66.7621 17.8625 66.8141 18.3407 66.9969 18.774C67.1798 19.2072 67.4855 19.5765 67.8755 19.8354C68.2657 20.0943 68.7229 20.2315 69.19 20.2296C69.5078 20.2358 69.8233 20.1759 70.117 20.0536C70.4107 19.9313 70.6763 19.7493 70.897 19.5188C71.1178 19.2884 71.289 19.0145 71.4 18.7144C71.511 18.4142 71.5594 18.0942 71.5422 17.7743H71.5526Z" fill="#282938"/>
<path d="M76.0801 9.7993C76.0801 9.4299 76.1888 9.06888 76.3923 8.76168C76.5959 8.45456 76.8852 8.21513 77.2237 8.07381C77.5622 7.93245 77.9347 7.89546 78.2941 7.96753C78.6535 8.03959 78.9836 8.21751 79.2427 8.47868C79.5018 8.73985 79.6782 9.07265 79.7497 9.43499C79.8211 9.79725 79.7845 10.1728 79.6442 10.514C79.504 10.8554 79.2665 11.1471 78.9619 11.3523C78.6572 11.5575 78.2991 11.667 77.9327 11.667C77.443 11.6616 76.975 11.4631 76.6287 11.1139C76.2824 10.7649 76.0855 10.293 76.0801 9.7993ZM76.3819 12.5799H79.5042V22.9676H76.3819V12.5799Z" fill="#282938"/>
<path d="M92.8684 17.7738C92.9037 18.4647 92.8028 19.1557 92.5715 19.807C92.341 20.4584 91.9842 21.0574 91.5225 21.5693C91.0616 22.0813 90.5038 22.4963 89.883 22.7903C89.2621 23.0843 88.5896 23.2515 87.9039 23.2825C87.3224 23.3215 86.7392 23.2276 86.1987 23.0078C85.6583 22.7879 85.1735 22.4479 84.7815 22.0129V27.1438H81.6592V12.58H84.7815V13.5558C85.1744 13.1221 85.6591 12.7836 86.1996 12.5655C86.7401 12.3475 87.3232 12.2556 87.9039 12.2966C88.5863 12.3276 89.2564 12.4939 89.8756 12.786C90.4948 13.078 91.0501 13.4901 91.511 13.9987C91.9719 14.5073 92.3295 15.1025 92.5625 15.7502C92.7954 16.398 92.8987 17.0856 92.8684 17.7738ZM89.746 17.7738C89.7337 17.2865 89.5787 16.8136 89.3015 16.4146C89.0234 16.0155 88.6355 15.708 88.1852 15.5305C87.7341 15.353 87.242 15.3135 86.7696 15.4169C86.2972 15.5203 85.8649 15.762 85.5287 16.1117C85.1916 16.4615 84.9644 16.9036 84.8758 17.3828C84.7872 17.8621 84.8405 18.357 85.03 18.8057C85.2195 19.2543 85.5352 19.6366 85.9396 19.9048C86.3431 20.173 86.8163 20.3149 87.3002 20.313C87.6316 20.3272 87.9621 20.2706 88.2697 20.1471C88.5781 20.0235 88.8561 19.8356 89.0874 19.5958C89.3187 19.3561 89.4967 19.0698 89.6099 18.7558C89.723 18.4419 89.7698 18.1072 89.746 17.7738Z" fill="#282938"/>
<path d="M102.37 19.8513C102.37 22.2436 100.289 23.2614 98.0823 23.2614C97.1826 23.343 96.2787 23.1507 95.4881 22.7093C94.6983 22.2678 94.0569 21.5976 93.6484 20.7851L96.3337 19.2532C96.4403 19.6276 96.6708 19.9538 96.9874 20.1772C97.3039 20.4008 97.6862 20.5079 98.0716 20.4808C98.8106 20.4808 99.1854 20.25 99.1854 19.8302C99.1854 18.6866 94.1168 19.2952 94.1168 15.6962C94.1168 13.4298 96.0114 12.2965 98.1553 12.2965C98.9705 12.2598 99.7801 12.4461 100.499 12.836C101.216 13.2258 101.817 13.8044 102.235 14.5105L99.5496 15.9375C99.4315 15.6668 99.2371 15.4366 98.9919 15.2745C98.7458 15.1125 98.4588 15.0257 98.166 15.0247C97.6246 15.0247 97.3015 15.2345 97.3015 15.6017C97.3015 16.7979 102.37 16.0109 102.37 19.8513Z" fill="#282938"/>
<path d="M113.684 12.5801V22.9679H110.561V21.992C110.206 22.4239 109.756 22.7658 109.246 22.99C108.737 23.2142 108.181 23.3144 107.626 23.2826C105.544 23.2826 103.765 21.7822 103.765 18.9807V12.5801H106.887V18.5084C106.862 18.7563 106.892 19.0066 106.972 19.242C107.054 19.4774 107.184 19.6923 107.355 19.8718C107.526 20.0514 107.734 20.1914 107.964 20.2821C108.194 20.3728 108.441 20.412 108.687 20.3971C109.812 20.3971 110.602 19.7256 110.602 18.2986V12.5801H113.684Z" fill="#282938"/>
<path d="M131.376 16.5883V22.9679H128.253V16.8612C128.253 15.8119 127.764 15.1614 126.775 15.1614C125.786 15.1614 125.162 15.8853 125.162 17.113V22.9679H122.04V16.8612C122.04 15.8119 121.551 15.1614 120.562 15.1614C119.574 15.1614 118.949 15.8853 118.949 17.113V22.9679H115.826V12.5801H118.949V13.535C119.272 13.1131 119.694 12.7791 120.178 12.5629C120.661 12.3468 121.19 12.2553 121.717 12.2968C122.245 12.2691 122.771 12.3802 123.244 12.6193C123.716 12.8585 124.12 13.2174 124.413 13.6609C124.755 13.1976 125.21 12.8295 125.732 12.5909C126.255 12.3524 126.828 12.2512 127.4 12.2968C129.836 12.2968 131.376 13.9967 131.376 16.5883Z" fill="#282938"/>
<path d="M15.2775 5.07755V0.618164H1.33105V31.2568H15.2775V26.7974C12.4206 26.7974 9.68064 25.6532 7.6605 23.6166C5.64034 21.58 4.50543 18.8177 4.50543 15.9375C4.50543 13.0572 5.64034 10.295 7.6605 8.25836C9.68064 6.22171 12.4206 5.07755 15.2775 5.07755Z" fill="#282938"/>
<path d="M15.2783 5.07812V26.7979C18.1352 26.7979 20.8752 25.6538 22.8953 23.6171C24.9155 21.5805 26.0504 18.8183 26.0504 15.938C26.0504 13.0578 24.9155 10.2955 22.8953 8.25894C20.8752 6.22229 18.1352 5.07812 15.2783 5.07812Z" fill="#282938"/>
<path d="M133.999 12.5172C135.264 12.5172 136.289 11.4836 136.289 10.2088C136.289 8.9339 135.264 7.90039 133.999 7.90039C132.734 7.90039 131.709 8.9339 131.709 10.2088C131.709 11.4836 132.734 12.5172 133.999 12.5172Z" fill="#282938"/>
</svg>
