<svg width="162" height="32" viewBox="0 0 162 32" fill="none" xmlns="http://www.w3.org/2000/svg">
<g clip-path="url(#clip0_904_1039)">
<path d="M24.7231 14.0828C24.2731 14.5374 23.9284 15.086 23.7137 15.6896C23.499 16.2932 23.4196 16.9369 23.481 17.5749L23.4596 17.5534C23.5227 18.3043 23.4219 19.06 23.1641 19.7677C22.9063 20.4755 22.4979 21.1182 21.9671 21.6511C21.4364 22.184 20.7962 22.5942 20.0912 22.853C19.3863 23.1118 18.6336 23.213 17.8857 23.1497L17.907 23.1711C17.0124 23.0875 16.1138 23.2829 15.3339 23.7308C14.5539 24.1787 13.9305 24.8573 13.5487 25.6739C13.1669 26.4905 13.0452 27.4056 13.2004 28.2941C13.3555 29.1827 13.7798 30.0016 14.4154 30.6393C15.0511 31.2768 15.8671 31.7021 16.7523 31.857C17.6375 32.012 18.5487 31.8889 19.3617 31.5049C20.1748 31.1209 20.85 30.4943 21.2954 29.7109C21.7408 28.9273 21.9347 28.025 21.8506 27.1269L21.8732 27.1483C21.81 26.3974 21.9109 25.6417 22.1687 24.9339C22.4265 24.2262 22.835 23.5834 23.3657 23.0506C23.8965 22.5177 24.5366 22.1076 25.2416 21.8488C25.9465 21.5899 26.6992 21.4887 27.4471 21.5521L27.4246 21.5306C28.1554 21.5966 28.891 21.4763 29.5632 21.1808C30.2354 20.8854 30.8224 20.4244 31.2698 19.8405C31.7173 19.2567 32.0107 18.5689 32.1229 17.8408C32.2352 17.1128 32.1625 16.368 31.9116 15.6757C31.6609 14.9833 31.2401 14.3657 30.6882 13.8802C30.1364 13.3946 29.4714 13.0568 28.7549 12.8979C28.0384 12.739 27.2935 12.7643 26.5893 12.9715C25.8852 13.1786 25.2445 13.5609 24.7267 14.0828H24.7231Z" fill="#282938"/>
<path d="M15.9638 20.3602L15.9412 20.3388C16.5769 20.4031 17.2189 20.3247 17.8207 20.1094C18.4225 19.8942 18.9692 19.5472 19.4211 19.0938C19.8731 18.6404 20.219 18.0918 20.4339 17.4878C20.6488 16.8837 20.7273 16.2392 20.6637 15.6009L20.6863 15.6223C20.6232 14.8715 20.724 14.1157 20.9818 13.408C21.2396 12.7003 21.6481 12.0575 22.1789 11.5247C22.7096 10.9918 23.3498 10.5816 24.0547 10.3228C24.7596 10.0639 25.5124 9.96268 26.2603 10.0261L26.2377 10.0047C27.1324 10.089 28.0313 9.89416 28.8117 9.44682C29.5921 8.99941 30.216 8.32121 30.5984 7.50469C30.9808 6.68818 31.103 5.77312 30.9484 4.88432C30.7937 3.99551 30.3697 3.17624 29.7343 2.53824C29.0988 1.90024 28.2829 1.47458 27.3976 1.31932C26.5123 1.16406 25.6009 1.28675 24.7877 1.67067C23.9744 2.05458 23.2989 2.68103 22.8533 3.46456C22.4077 4.24809 22.2137 5.15056 22.2977 6.04887L22.2763 6.02622C22.3396 6.77718 22.239 7.53298 21.9812 8.24082C21.7235 8.94867 21.3149 9.59148 20.7842 10.1244C20.2535 10.6574 19.6132 11.0675 18.9081 11.3263C18.2031 11.585 17.4503 11.6861 16.7024 11.6224L16.7237 11.6451C16.088 11.5808 15.446 11.6591 14.8442 11.8745C14.2424 12.0897 13.6957 12.4367 13.2438 12.8901C12.7919 13.3435 12.4459 13.8921 12.231 14.4961C12.0161 15.1003 11.9376 15.7447 12.0012 16.383L11.9798 16.3615C12.0427 17.1124 11.9417 17.868 11.6838 18.5757C11.426 19.2833 11.0175 19.926 10.4868 20.4588C9.95608 20.9917 9.31599 21.4018 8.61116 21.6607C7.90632 21.9196 7.15372 22.021 6.40584 21.9578L6.42722 21.9792C5.53248 21.8949 4.63362 22.0897 3.85321 22.5371C3.0728 22.9845 2.44885 23.6627 2.06647 24.4792C1.68408 25.2958 1.56188 26.2108 1.71652 27.0996C1.87116 27.9884 2.29512 28.8077 2.93058 29.4457C3.56603 30.0837 4.38204 30.5093 5.2673 30.6646C6.15256 30.8198 7.06399 30.6972 7.87724 30.3133C8.6905 29.9294 9.366 29.3029 9.81157 28.5194C10.2572 27.7359 10.4512 26.8334 10.3672 25.935L10.3898 25.9565C10.3267 25.2056 10.4275 24.4498 10.6853 23.7422C10.9431 23.0344 11.3516 22.3917 11.8823 21.8588C12.4131 21.3259 13.0532 20.9157 13.7582 20.6569C14.4631 20.3981 15.2158 20.2969 15.9638 20.3602Z" fill="#282938"/>
<path d="M8.00484 17.9676C8.45492 17.5131 8.79951 16.9645 9.01401 16.3608C9.22851 15.7571 9.30764 15.1135 9.24575 14.4755L9.26831 14.497C9.20512 13.7459 9.30602 12.99 9.5639 12.282C9.82187 11.5741 10.2306 10.9313 10.7616 10.3983C11.2926 9.86538 11.9331 9.45531 12.6383 9.19665C13.3436 8.93798 14.0965 8.83701 14.8446 8.90077L14.8221 8.87931C15.7165 8.96343 16.615 8.76852 17.395 8.32116C18.1751 7.87379 18.7988 7.19575 19.1809 6.3795C19.563 5.56324 19.6851 4.64851 19.5305 3.76003C19.3758 2.87156 18.952 2.05261 18.3168 1.41484C17.6816 0.777078 16.8659 0.351553 15.9809 0.196298C15.096 0.0410433 14.185 0.163616 13.3719 0.547299C12.5589 0.930983 11.8836 1.5571 11.4379 2.34027C10.9924 3.12343 10.7983 4.02553 10.882 4.92354L10.8607 4.90208C10.9238 5.65299 10.823 6.4087 10.5652 7.11645C10.3074 7.82419 9.89892 8.46693 9.36814 8.9998C8.83739 9.53267 8.19721 9.94284 7.49228 10.2017C6.78736 10.4605 6.03467 10.5618 5.28674 10.4983L5.30812 10.5198C4.57731 10.454 3.8418 10.5745 3.16972 10.8701C2.49763 11.1656 1.91073 11.6267 1.46341 12.2107C1.01607 12.7946 0.722785 13.4824 0.610717 14.2104C0.49865 14.9385 0.571428 15.6832 0.82231 16.3754C1.07319 17.0676 1.49406 17.6851 2.04591 18.1706C2.59776 18.6562 3.26273 18.9939 3.97923 19.1527C4.69571 19.3115 5.44052 19.2861 6.14464 19.0789C6.84877 18.8718 7.48941 18.4895 8.00722 17.9676H8.00484Z" fill="#282938"/>
<path d="M44.7881 6.07617H48.3149V23.3073H44.7881V6.07617Z" fill="#282938"/>
<path d="M50.3127 17.4075C50.3077 16.1692 50.669 14.9574 51.3505 13.9254C52.0321 12.8934 53.0035 12.0876 54.1416 11.6104C55.2796 11.133 56.5332 11.0056 57.7435 11.2442C58.9537 11.4827 60.0663 12.0764 60.9401 12.9503C61.814 13.8241 62.4099 14.9387 62.6523 16.1529C62.8947 17.367 62.7728 18.6261 62.302 19.7706C61.8311 20.9151 61.0326 21.8936 60.0074 22.582C58.9822 23.2705 57.7766 23.638 56.5433 23.638C55.7245 23.6474 54.9122 23.4929 54.1537 23.1834C53.3952 22.8739 52.7058 22.4157 52.1256 21.8356C51.5455 21.2555 51.0864 20.5652 50.7751 19.8048C50.4638 19.0445 50.3066 18.2296 50.3127 17.4075ZM59.2471 17.4075C59.2325 16.8738 59.0613 16.3563 58.7552 15.9195C58.4492 15.4829 58.0217 15.1466 57.5262 14.9525C57.0307 14.7584 56.4893 14.7153 55.9695 14.8285C55.4498 14.9418 54.9748 15.2063 54.6041 15.589C54.2332 15.9718 53.9831 16.4558 53.8847 16.9805C53.7863 17.5053 53.8443 18.0475 54.0513 18.5394C54.2581 19.0313 54.6049 19.451 55.0482 19.7461C55.4914 20.0411 56.0115 20.1986 56.5433 20.1985C56.9075 20.2083 57.2698 20.1422 57.6072 20.0043C57.9448 19.8666 58.2502 19.66 58.5042 19.3978C58.7583 19.1355 58.9554 18.8234 59.0833 18.4808C59.2112 18.1383 59.267 17.7728 59.2471 17.4075Z" fill="#282938"/>
<path d="M76.8304 11.5054V22.7123C76.8304 26.6776 73.7502 28.3539 70.6236 28.3539C69.5227 28.4366 68.4204 28.2133 67.4376 27.7086C66.4549 27.2038 65.6294 26.4371 65.052 25.4925L68.061 23.7459C68.3037 24.2383 68.6904 24.6446 69.1694 24.9102C69.6483 25.1759 70.1967 25.2883 70.7411 25.2326C71.0891 25.281 71.4434 25.2502 71.7778 25.1426C72.1123 25.035 72.4184 24.8531 72.6734 24.6107C72.9285 24.3683 73.1261 24.0713 73.2514 23.7419C73.3767 23.4125 73.4266 23.0589 73.3975 22.7075V21.6286C72.9845 22.1359 72.4589 22.539 71.8627 22.8054C71.2665 23.0719 70.6163 23.1943 69.9645 23.1629C68.4135 23.1139 66.9423 22.4607 65.8624 21.3417C64.7825 20.2228 64.1787 18.7259 64.1787 17.1679C64.1787 15.6099 64.7825 14.1129 65.8624 12.9939C66.9423 11.8751 68.4135 11.2219 69.9645 11.1728C70.6163 11.1414 71.2665 11.2639 71.8627 11.5303C72.4589 11.7968 72.9845 12.1999 73.3975 12.7072V11.503L76.8304 11.5054ZM73.3987 17.1697C73.4224 16.599 73.2755 16.0343 72.9768 15.5482C72.6781 15.0621 72.2413 14.6769 71.7228 14.442C71.2042 14.2073 70.6275 14.1337 70.0669 14.2307C69.5064 14.3278 68.9875 14.591 68.5772 14.9866C68.1669 15.3823 67.8839 15.8921 67.7646 16.4505C67.6454 17.009 67.6953 17.5905 67.908 18.1203C68.1207 18.6499 68.4864 19.1036 68.9581 19.4229C69.4298 19.7422 69.9858 19.9124 70.5547 19.9118C70.9252 19.9377 71.2971 19.8854 71.6463 19.7584C71.9955 19.6313 72.3143 19.4322 72.5823 19.1739C72.8502 18.9155 73.0612 18.6037 73.2019 18.2585C73.3424 17.9134 73.4095 17.5425 73.3987 17.1697Z" fill="#282938"/>
<path d="M78.8273 17.4075C78.8224 16.1692 79.1836 14.9574 79.8653 13.9254C80.5469 12.8934 81.5182 12.0876 82.6563 11.6104C83.7944 11.133 85.0479 11.0056 86.2581 11.2442C87.4684 11.4827 88.5809 12.0764 89.4548 12.9503C90.3287 13.8241 90.9246 14.9387 91.167 16.1529C91.4095 17.367 91.2876 18.6261 90.8167 19.7706C90.3458 20.9151 89.5473 21.8936 88.5221 22.582C87.4969 23.2705 86.2913 23.638 85.058 23.638C84.2393 23.6474 83.4269 23.4929 82.6685 23.1834C81.9099 22.8739 81.2204 22.4157 80.6403 21.8356C80.0602 21.2555 79.6011 20.5652 79.2898 19.8048C78.9785 19.0445 78.8213 18.2296 78.8273 17.4075ZM87.7619 17.4075C87.7471 16.8738 87.5761 16.3563 87.2699 15.9195C86.9639 15.4829 86.5364 15.1466 86.0409 14.9525C85.5455 14.7584 85.004 14.7153 84.4843 14.8285C83.9645 14.9418 83.4896 15.2063 83.1187 15.589C82.7479 15.9718 82.4977 16.4558 82.3994 16.9805C82.3011 17.5053 82.359 18.0475 82.5659 18.5394C82.7729 19.0313 83.1197 19.451 83.5629 19.7461C84.0062 20.0411 84.5261 20.1986 85.058 20.1985C85.4222 20.2083 85.7845 20.1422 86.122 20.0043C86.4595 19.8666 86.7649 19.66 87.0189 19.3978C87.2729 19.1355 87.4701 18.8234 87.598 18.4808C87.7258 18.1383 87.7816 17.7728 87.7619 17.4075Z" fill="#282938"/>
<path d="M92.9336 8.34231C92.9336 7.92212 93.0577 7.51136 93.2902 7.16199C93.5227 6.8126 93.8532 6.54029 94.2402 6.37949C94.6268 6.21869 95.0521 6.17662 95.4622 6.2586C95.8734 6.34057 96.2497 6.54292 96.546 6.84004C96.8414 7.13716 97.0437 7.51571 97.1246 7.92783C97.2065 8.33994 97.1651 8.76712 97.0042 9.15532C96.8443 9.54357 96.5733 9.87533 96.2252 10.1087C95.8771 10.3422 95.4679 10.4669 95.0492 10.4669C94.4904 10.4612 93.9552 10.2356 93.5595 9.83844C93.1639 9.44117 92.9391 8.90403 92.9336 8.34231ZM93.2899 11.5053H96.8179V23.3082H93.2851L93.2899 11.5053Z" fill="#282938"/>
<path d="M112.045 17.4072C112.086 18.1873 111.973 18.9677 111.712 19.7036C111.452 20.4396 111.048 21.1166 110.526 21.6956C110.004 22.2746 109.373 22.7443 108.67 23.0775C107.966 23.4109 107.203 23.6012 106.426 23.6377C105.773 23.6735 105.119 23.5629 104.513 23.3138C103.909 23.0646 103.365 22.6834 102.924 22.1975V28.0287H99.3975V11.5058H102.924V12.6145C103.366 12.129 103.909 11.748 104.514 11.4992C105.119 11.2502 105.773 11.1398 106.426 11.1755C107.203 11.2118 107.966 11.4022 108.67 11.7354C109.374 12.0688 110.005 12.5385 110.527 13.1177C111.049 13.6969 111.453 14.3741 111.713 15.1102C111.974 15.8464 112.087 16.627 112.045 17.4072ZM108.518 17.4072C108.505 16.8549 108.329 16.3188 108.013 15.8662C107.698 15.4136 107.256 15.0646 106.744 14.8628C106.231 14.6609 105.671 14.6153 105.133 14.7316C104.595 14.8479 104.103 15.1209 103.718 15.5165C103.335 15.9121 103.075 16.4127 102.972 16.9557C102.871 17.4986 102.93 18.0598 103.144 18.5689C103.358 19.078 103.717 19.5126 104.175 19.8181C104.634 20.1236 105.172 20.2865 105.722 20.2864C106.1 20.3033 106.477 20.2398 106.829 20.1001C107.181 19.9604 107.499 19.7477 107.763 19.4758C108.027 19.2039 108.231 18.8791 108.361 18.5226C108.491 18.1661 108.545 17.7861 108.518 17.4072Z" fill="#282938"/>
<path d="M122.928 19.7666C122.928 22.4812 120.577 23.6377 118.039 23.6377C117.014 23.731 115.984 23.5132 115.082 23.0124C114.181 22.5117 113.45 21.7511 112.984 20.8288L116.039 19.0823C116.163 19.5085 116.429 19.8793 116.792 20.1328C117.155 20.3862 117.593 20.5069 118.035 20.4747C118.88 20.4747 119.304 20.2149 119.304 19.7439C119.304 18.4444 113.52 19.13 113.52 15.0466C113.52 12.4726 115.683 11.1754 118.129 11.1754C119.048 11.1463 119.957 11.3652 120.764 11.8093C121.57 12.2535 122.243 12.9065 122.712 13.7006L119.703 15.3291C119.571 15.0199 119.351 14.7567 119.071 14.572C118.791 14.3874 118.464 14.2895 118.129 14.2907C117.517 14.2907 117.14 14.5291 117.14 14.9512C117.145 16.2972 122.928 15.3995 122.928 19.7666Z" fill="#282938"/>
<path d="M135.812 11.5059V23.3088H132.285V22.1988C131.879 22.6886 131.362 23.0745 130.778 23.3249C130.194 23.5752 129.559 23.6829 128.925 23.639C126.55 23.639 124.531 21.9401 124.531 18.7509V11.5059H128.058V18.2324C128.029 18.5135 128.06 18.7976 128.151 19.0651C128.243 19.3326 128.39 19.577 128.585 19.7812C128.78 19.9855 129.016 20.1447 129.278 20.2478C129.541 20.3509 129.822 20.3955 130.103 20.3783C131.396 20.3783 132.289 19.6237 132.289 17.9475V11.5094L135.812 11.5059Z" fill="#282938"/>
<path d="M156.035 16.0617V23.308H152.508V16.3681C152.508 15.1878 151.943 14.4332 150.815 14.4332C149.64 14.4332 148.98 15.2593 148.98 16.6519V23.308H145.455V16.3681C145.455 15.1878 144.891 14.4332 143.762 14.4332C142.586 14.4332 141.928 15.2593 141.928 16.6519V23.308H138.401V11.5051H141.928V12.59C142.294 12.1086 142.774 11.727 143.324 11.4797C143.875 11.2326 144.478 11.1277 145.079 11.1748C145.682 11.1452 146.283 11.2731 146.822 11.5459C147.362 11.8188 147.822 12.2274 148.158 12.7319C148.549 12.2041 149.066 11.7844 149.663 11.5121C150.259 11.2398 150.914 11.1238 151.567 11.1748C154.266 11.176 156.035 13.111 156.035 16.0617Z" fill="#282938"/>
<path d="M159.018 11.433C160.463 11.433 161.635 10.2566 161.635 8.80538C161.635 7.35417 160.463 6.17773 159.018 6.17773C157.573 6.17773 156.4 7.35417 156.4 8.80538C156.4 10.2566 157.573 11.433 159.018 11.433Z" fill="#282938"/>
</g>
<defs>
<clipPath id="clip0_904_1039">
<rect width="161.815" height="32" fill="white"/>
</clipPath>
</defs>
</svg>
