<svg width="137" height="32" viewBox="0 0 137 32" fill="none" xmlns="http://www.w3.org/2000/svg">
<path d="M39.7402 9.89956H43.169V23.7669H39.7402V9.89956ZM44.5363 18.5507C44.5363 15.1158 46.6726 13.057 49.8771 13.057C53.0816 13.057 55.2179 15.1158 55.2179 18.5507C55.2179 21.9855 53.1564 24.0656 49.8771 24.0656C46.5979 24.0656 44.5363 22.0601 44.5363 18.5507ZM51.8212 18.5507C51.8212 16.6626 51.0842 15.5532 49.9092 15.5532C48.7341 15.5532 48.0078 16.6199 48.0078 18.5507C48.0078 20.4814 48.7341 21.5375 49.9092 21.5375C51.0842 21.5375 51.8425 20.4815 51.8425 18.5613L51.8212 18.5507ZM56.5852 24.4816H59.8965C60.0473 24.8377 60.3106 25.1346 60.6462 25.3272C60.9817 25.5199 61.3713 25.5975 61.7552 25.5483C63.069 25.5483 63.7526 24.8443 63.7526 23.7989V21.8788H63.7633C63.4804 22.4767 63.0228 22.975 62.4508 23.3082C61.8788 23.6415 61.2192 23.7939 60.5588 23.7455C58.0486 23.7455 56.3823 21.8361 56.3823 18.5507C56.3823 15.2651 57.9738 13.217 60.6549 13.217C61.3323 13.1808 62.0042 13.3553 62.5781 13.7164C63.152 14.0775 63.5996 14.6074 63.8594 15.2331H63.7633V13.3024H67.1601V23.6922C67.1601 26.199 64.9383 27.7671 61.6697 27.7671C58.7002 27.7564 56.7988 26.4017 56.6066 24.4923L56.5852 24.4816ZM63.7633 18.5507C63.7633 16.8759 62.9943 15.8198 61.7765 15.8198C60.5588 15.8198 59.8111 16.8866 59.8111 18.5507C59.8111 20.2148 60.5481 21.1962 61.7765 21.1962C63.0049 21.1962 63.7633 20.2894 63.7633 18.5507ZM68.5167 18.5507C68.5167 15.1158 70.653 13.057 73.8574 13.057C77.062 13.057 79.1983 15.1158 79.1983 18.5507C79.1983 21.9855 77.1261 24.0656 73.8574 24.0656C70.5889 24.0656 68.538 22.0601 68.538 18.5507H68.5167ZM75.8016 18.5507C75.8016 16.6626 75.0538 15.5532 73.8895 15.5532C72.7252 15.5532 71.9882 16.6199 71.9882 18.5507C71.9882 20.4814 72.7145 21.5375 73.8895 21.5375C75.0645 21.5375 75.8229 20.4815 75.8229 18.5613L75.8016 18.5507ZM80.5869 10.7743C80.572 10.4255 80.662 10.0802 80.8451 9.78285C81.0284 9.4855 81.2965 9.24971 81.6149 9.10579C81.9334 8.96188 82.2877 8.9164 82.6323 8.97518C82.9769 9.03405 83.2961 9.19447 83.5486 9.4359C83.8011 9.67733 83.9755 9.98866 84.0493 10.3299C84.1233 10.6711 84.0932 11.0266 83.9631 11.3507C83.833 11.6747 83.6088 11.9524 83.3193 12.1482C83.0298 12.3439 82.6883 12.4487 82.3387 12.449C82.1153 12.4547 81.893 12.416 81.6847 12.3352C81.4763 12.2543 81.2862 12.133 81.1253 11.9782C80.9642 11.8234 80.8356 11.6382 80.7469 11.4334C80.6582 11.2285 80.611 11.0081 80.6083 10.785L80.5869 10.7743ZM80.5869 13.2917H84.0585V23.8095H80.6403L80.5869 13.2917ZM96.5452 18.5507C96.5452 21.9748 95.0073 23.9589 92.3903 23.9589C91.7203 24.0002 91.0536 23.8351 90.4804 23.486C89.9071 23.137 89.4559 22.6207 89.1857 22.0068H89.1218V27.1911H85.6925V13.3237H89.0999V15.2011H89.1647C89.4248 14.5753 89.8726 14.0448 90.4459 13.6821C91.0191 13.3194 91.6908 13.1422 92.3684 13.1744C95.0604 13.153 96.6092 15.1265 96.6092 18.5613L96.5452 18.5507ZM93.0528 18.5507C93.0528 16.8866 92.2725 15.8092 91.0654 15.8092C89.8583 15.8092 89.0999 16.8759 89.0898 18.5507C89.0788 20.2254 89.8583 21.2815 91.0654 21.2815C92.2725 21.2815 93.1167 20.2894 93.1167 18.5613L93.0528 18.5507ZM102.399 13.0463C105.273 13.0463 107.056 14.4011 107.077 16.5772H103.948C103.948 15.8198 103.318 15.3505 102.378 15.3505C101.438 15.3505 100.989 15.7132 100.989 16.2572C100.989 16.8012 101.384 16.9719 102.175 17.1319L104.375 17.5799C106.512 18.028 107.366 18.8814 107.366 20.4708C107.366 22.6042 105.39 24.0549 102.453 24.0549C99.5149 24.0549 97.6025 22.6468 97.4644 20.5028H100.786C100.882 21.2815 101.501 21.7402 102.506 21.7402C103.51 21.7402 103.98 21.4202 103.98 20.8548C103.98 20.2894 103.66 20.1934 102.837 20.0228L100.85 19.6067C98.7885 19.1694 97.7094 18.092 97.7094 16.4812C97.7742 14.3904 99.568 13.057 102.463 13.057L102.399 13.0463ZM118.848 23.7989H115.527V21.8255H115.463C115.277 22.4837 114.872 23.0591 114.315 23.4565C113.757 23.8541 113.081 24.05 112.397 24.0122C111.88 24.0291 111.367 23.9366 110.889 23.7411C110.411 23.5455 109.98 23.2511 109.624 22.8774C109.268 22.5037 108.995 22.0591 108.823 21.5726C108.651 21.0861 108.584 20.5689 108.626 20.0548V13.3024H112.055V19.3187C112.055 20.5561 112.707 21.2282 113.775 21.2282C114.026 21.2262 114.273 21.1707 114.5 21.0652C114.727 20.9597 114.929 20.8068 115.092 20.6167C115.255 20.4266 115.375 20.2038 115.445 19.9633C115.514 19.7228 115.531 19.4703 115.495 19.2227V13.3024H118.913L118.848 23.7989ZM120.504 13.2917H123.837V15.3185H123.912C124.096 14.6692 124.491 14.0992 125.034 13.6978C125.577 13.2963 126.238 13.086 126.913 13.0997C127.592 13.0409 128.268 13.2367 128.809 13.649C129.35 14.0613 129.718 14.6604 129.84 15.3291H129.99C130.203 14.6569 130.633 14.0738 131.213 13.6706C131.792 13.2674 132.489 13.0667 133.194 13.0997C133.663 13.0819 134.13 13.1631 134.566 13.3382C135.001 13.5132 135.395 13.778 135.72 14.1154C136.045 14.4527 136.296 14.8549 136.455 15.2958C136.615 15.7365 136.679 16.2059 136.645 16.6732V23.8095H133.194V17.5479C133.194 16.4812 132.692 15.8838 131.721 15.8838C131.504 15.8803 131.29 15.9234 131.093 16.0101C130.896 16.0968 130.72 16.2251 130.577 16.3862C130.433 16.5473 130.327 16.7374 130.264 16.9434C130.202 17.1495 130.185 17.3666 130.214 17.5799V23.8095H126.945V17.5159C126.945 16.4492 126.422 15.8838 125.482 15.8838C125.264 15.8821 125.049 15.9269 124.849 16.0154C124.651 16.1037 124.472 16.2335 124.328 16.3962C124.183 16.5589 124.075 16.7506 124.011 16.9584C123.946 17.1663 123.928 17.3855 123.954 17.6013V23.8095H120.526L120.504 13.2917Z" fill="#282938"/>
<path d="M32.9584 10.8063C32.9585 8.68319 32.3164 6.60957 31.1164 4.85701C29.9164 3.10445 28.2144 1.75469 26.2332 0.984508C24.2521 0.214331 22.0841 0.059655 20.0135 0.540737C17.9428 1.02182 16.0659 2.11623 14.6285 3.68062H1.29785V31.778H29.444V18.6467C30.5488 17.6599 31.4328 16.4517 32.0383 15.1007C32.6438 13.7497 32.9574 12.2865 32.9584 10.8063ZM27.5428 10.8063C27.5449 11.8236 27.2447 12.8188 26.6802 13.6658C26.1158 14.5127 25.3125 15.1733 24.3719 15.5641C23.4313 15.9549 22.3957 16.0583 21.3963 15.861C20.3968 15.6639 19.4785 15.1751 18.7574 14.4564C18.0362 13.7378 17.5448 12.8216 17.3453 11.824C17.1458 10.8263 17.2472 9.79199 17.6365 8.85186C18.0259 7.91172 18.6857 7.10808 19.5327 6.54264C20.3796 5.97721 21.3754 5.67539 22.3942 5.67538C23.7578 5.67538 25.0657 6.21562 26.031 7.17754C26.9962 8.13947 27.5399 9.44453 27.5428 10.8063ZM24.0284 26.3698H6.71346V9.08891H11.9902C11.8883 9.65582 11.8347 10.2303 11.83 10.8063C11.8328 13.6034 12.9467 16.2852 14.9273 18.2631C16.9079 20.2409 19.5932 21.3533 22.3942 21.3562C22.9417 21.3532 23.4882 21.3069 24.0284 21.2175V26.3698Z" fill="#282938"/>
</svg>
