<svg width="155" height="32" viewBox="0 0 155 32" fill="none" xmlns="http://www.w3.org/2000/svg">
<g clip-path="url(#clip0_904_1069)">
<path d="M50.3349 25.4924C49.5603 25.5342 48.7941 25.3151 48.1599 24.8707C47.8949 24.6754 47.6818 24.4189 47.5389 24.1233C47.396 23.8276 47.3274 23.5019 47.3395 23.1741V11.1682C47.3331 11.1173 47.3386 11.0657 47.3553 11.0173C47.372 10.9689 47.3997 10.9249 47.4361 10.8887C47.4725 10.8525 47.5168 10.825 47.5655 10.8083C47.6142 10.7917 47.6661 10.7863 47.7172 10.7926H49.9052C50.1526 10.7926 50.2698 10.9221 50.2698 11.1682V22.2416C50.2698 22.7338 50.4912 22.9798 50.947 22.9798C51.1403 22.9878 51.3335 22.9659 51.5201 22.9151C51.7805 22.9151 51.9238 22.9928 51.9368 23.2259L52.1322 24.8448C52.1415 24.892 52.1407 24.9407 52.1296 24.9875C52.1184 25.0344 52.0974 25.0782 52.0678 25.1163C52.0382 25.1543 52.0007 25.1857 51.9579 25.2081C51.9151 25.2305 51.8679 25.2436 51.8196 25.2464C51.3403 25.4038 50.8396 25.4868 50.3349 25.4924Z" fill="#282938"/>
<path d="M62.6429 24.1072C61.5435 25.0105 60.162 25.5046 58.7359 25.5046C57.3097 25.5046 55.9282 25.0105 54.8287 24.1072C53.8624 23.1371 53.3203 21.8268 53.3203 20.4613C53.3203 19.0959 53.8624 17.7856 54.8287 16.8155C55.9303 15.9169 57.311 15.4258 58.7359 15.4258C60.1606 15.4258 61.5414 15.9169 62.6429 16.8155C63.5869 17.7946 64.114 19.0985 64.114 20.4549C64.114 21.8113 63.5869 23.1152 62.6429 24.0943V24.1072ZM56.8865 22.3975C57.3967 22.8572 58.0604 23.1118 58.7489 23.1118C59.4372 23.1118 60.1011 22.8572 60.6112 22.3975C61.073 21.8697 61.3273 21.1934 61.3273 20.4938C61.3273 19.794 61.073 19.1179 60.6112 18.5899C60.1011 18.1303 59.4372 17.8757 58.7489 17.8757C58.0604 17.8757 57.3967 18.1303 56.8865 18.5899C56.4247 19.1179 56.1704 19.794 56.1704 20.4938C56.1704 21.1934 56.4247 21.8697 56.8865 22.3975Z" fill="#282938"/>
<path d="M76.1614 15.7522C76.4088 15.7522 76.5261 15.8818 76.5261 16.1279V25.4139C76.5488 26.0407 76.4308 26.6646 76.1808 27.2404C75.9308 27.8162 75.5548 28.3292 75.0805 28.7425C74.0274 29.6355 72.6731 30.0982 71.2906 30.0376C70.0417 30.0813 68.8096 29.7422 67.7612 29.0663C67.3134 28.7738 66.9309 28.393 66.6374 27.9474C66.3439 27.5019 66.1456 27.001 66.0551 26.476C66.0551 26.2169 66.055 26.1004 66.4067 26.1004H68.5947C68.6876 26.1036 68.7775 26.1333 68.8538 26.1862C68.93 26.239 68.9894 26.3127 69.0244 26.3983C69.1663 26.7917 69.4493 27.1191 69.8189 27.3178C70.2694 27.549 70.7707 27.6647 71.2776 27.6546C71.5833 27.6713 71.8894 27.6271 72.1778 27.5248C72.4663 27.4225 72.7314 27.2642 72.9576 27.0588C73.1643 26.844 73.325 26.5899 73.4302 26.3116C73.5354 26.0334 73.5829 25.7368 73.5697 25.4399V24.624C72.7863 25.197 71.8329 25.4932 70.8608 25.4658C70.1804 25.4904 69.5021 25.378 68.8665 25.1354C68.2309 24.8929 67.6512 24.5251 67.1621 24.054C66.2231 23.0881 65.6982 21.7971 65.6982 20.4536C65.6982 19.11 66.2231 17.8191 67.1621 16.8531C67.6536 16.3863 68.234 16.022 68.8692 15.7818C69.5045 15.5416 70.1815 15.4303 70.8608 15.4544C71.861 15.4281 72.8401 15.7435 73.6348 16.348V16.1408C73.6288 16.0912 73.6341 16.0408 73.65 15.9935C73.666 15.9461 73.6926 15.9028 73.7274 15.8669C73.7623 15.8309 73.8048 15.8031 73.8519 15.7856C73.899 15.7679 73.9494 15.761 73.9995 15.7652L76.1614 15.7522ZM71.1082 23.1604C71.4438 23.1707 71.7775 23.1077 72.0858 22.9756C72.3941 22.8436 72.6695 22.6458 72.8925 22.3963C73.3254 21.8403 73.5604 21.1569 73.5604 20.4536C73.5604 19.7504 73.3254 19.067 72.8925 18.5109C72.6702 18.2647 72.3966 18.0699 72.0905 17.9402C71.7846 17.8104 71.4537 17.7488 71.1212 17.7597C70.7819 17.7491 70.4441 17.812 70.1316 17.9439C69.8191 18.0758 69.539 18.2737 69.311 18.5238C68.8313 19.0557 68.579 19.7526 68.6077 20.4665C68.5842 21.1734 68.8308 21.863 69.2979 22.3963C69.5265 22.6457 69.8067 22.8432 70.1191 22.9751C70.4316 23.1069 70.769 23.1702 71.1082 23.1604Z" fill="#282938"/>
<path d="M87.7651 24.1064C86.6635 25.005 85.2828 25.4961 83.858 25.4961C82.4332 25.4961 81.0524 25.005 79.9509 24.1064C79.006 23.1251 78.4785 21.8191 78.4785 20.4606C78.4785 19.102 79.006 17.7959 79.9509 16.8147C81.0534 15.9184 82.4338 15.4287 83.858 15.4287C85.2821 15.4287 86.6625 15.9184 87.7651 16.8147C88.7091 17.7937 89.2362 19.0977 89.2362 20.4541C89.2362 21.8104 88.7091 23.1144 87.7651 24.0934V24.1064ZM81.9956 22.3968C82.2453 22.6329 82.5396 22.8175 82.8615 22.9398C83.1835 23.0621 83.5265 23.1197 83.871 23.1091C84.2133 23.1179 84.5539 23.0596 84.8735 22.9374C85.193 22.815 85.4852 22.6314 85.7334 22.3968C86.1876 21.8653 86.437 21.1905 86.437 20.4929C86.437 19.7954 86.1876 19.1206 85.7334 18.5891C85.4852 18.3544 85.193 18.1708 84.8735 18.0485C84.5539 17.9263 84.2133 17.8679 83.871 17.8767C83.5265 17.8662 83.1835 17.9238 82.8615 18.046C82.5396 18.1683 82.2453 18.3529 81.9956 18.5891C81.5414 19.1206 81.292 19.7954 81.292 20.4929C81.292 21.1905 81.5414 21.8653 81.9956 22.3968Z" fill="#282938"/>
<path d="M93.9388 13.5513C93.5946 13.851 93.1526 14.0161 92.695 14.0161C92.2375 14.0161 91.7956 13.851 91.4513 13.5513C91.2952 13.4048 91.1708 13.2281 91.0859 13.0322C91.0009 12.8362 90.957 12.625 90.957 12.4116C90.957 12.1981 91.0009 11.9869 91.0859 11.791C91.1708 11.595 91.2952 11.4184 91.4513 11.2719C91.7991 10.9796 92.2397 10.8193 92.695 10.8193C93.1504 10.8193 93.591 10.9796 93.9388 11.2719C94.0949 11.4184 94.2193 11.595 94.3043 11.791C94.3892 11.9869 94.4331 12.1981 94.4331 12.4116C94.4331 12.625 94.3892 12.8362 94.3043 13.0322C94.2193 13.2281 94.0949 13.4048 93.9388 13.5513ZM94.2123 25.4925C93.4382 25.5303 92.6733 25.3116 92.0374 24.8707C91.7764 24.6725 91.5669 24.4151 91.4265 24.12C91.286 23.8249 91.2186 23.5005 91.2298 23.1741V16.1287C91.2235 16.0778 91.229 16.0261 91.2457 15.9777C91.2625 15.9293 91.2901 15.8853 91.3265 15.8491C91.3629 15.8129 91.4072 15.7854 91.4559 15.7687C91.5046 15.7521 91.5564 15.7467 91.6076 15.753H93.7956C94.043 15.753 94.1602 15.8826 94.1602 16.1287V22.2417C94.1602 22.7338 94.3817 22.9799 94.8244 22.9799C95.0219 22.987 95.2194 22.9651 95.4105 22.9151C95.6709 22.9151 95.8143 22.9929 95.8273 23.2259L96.0226 24.8449C96.032 24.8921 96.0311 24.9407 96.02 24.9876C96.0089 25.0344 95.9878 25.0783 95.9582 25.1163C95.9286 25.1544 95.891 25.1857 95.8483 25.2081C95.8055 25.2306 95.7583 25.2436 95.71 25.2464C95.2265 25.4047 94.7214 25.4877 94.2123 25.4925Z" fill="#282938"/>
<path d="M104.072 15.4419C104.756 15.4151 105.437 15.5251 106.077 15.7653C106.718 16.0056 107.302 16.3714 107.797 16.8407C108.718 17.8237 109.23 19.1172 109.23 20.4607C109.23 21.804 108.718 23.0977 107.797 24.0806C107.305 24.5541 106.721 24.9233 106.08 25.166C105.44 25.4086 104.757 25.5197 104.072 25.4922C103.097 25.5138 102.141 25.2182 101.35 24.6504V29.3258C101.35 29.5719 101.22 29.6885 100.973 29.6885H98.7847C98.7348 29.6977 98.6833 29.6948 98.6348 29.6799C98.5863 29.6649 98.5421 29.6385 98.5062 29.6028C98.4703 29.567 98.4437 29.5232 98.4287 29.4749C98.4137 29.4267 98.4107 29.3755 98.4201 29.3258V18.7057C98.4353 18.6019 98.4261 18.4959 98.3928 18.3962C98.3597 18.2965 98.3035 18.2059 98.2289 18.1317C98.1542 18.0575 98.0632 18.0016 97.9629 17.9686C97.8627 17.9356 97.7561 17.9264 97.6517 17.9415H97.2218C96.9354 17.9415 96.7921 17.838 96.7921 17.6307V16.1025C96.7853 16.0079 96.8113 15.9139 96.8659 15.8362C96.9204 15.7583 97.0001 15.7015 97.0916 15.6751C97.5421 15.5122 98.0189 15.4333 98.4982 15.4419C98.9761 15.3999 99.4558 15.5007 99.8758 15.7314C100.296 15.9622 100.637 16.3123 100.856 16.7371C101.275 16.3151 101.777 15.9826 102.33 15.76C102.883 15.5372 103.476 15.429 104.072 15.4419ZM102.041 22.3969C102.273 22.6382 102.552 22.8303 102.861 22.9615C103.17 23.0927 103.502 23.1603 103.838 23.1603C104.174 23.1603 104.507 23.0927 104.815 22.9615C105.124 22.8303 105.403 22.6382 105.635 22.3969C106.124 21.8543 106.381 21.1434 106.351 20.4154C106.385 19.6866 106.128 18.9741 105.635 18.4337C105.403 18.1924 105.124 18.0003 104.815 17.8691C104.507 17.7379 104.174 17.6703 103.838 17.6703C103.502 17.6703 103.17 17.7379 102.861 17.8691C102.552 18.0003 102.273 18.1924 102.041 18.4337C101.567 18.9836 101.32 19.6917 101.35 20.4154C101.324 21.1383 101.57 21.845 102.041 22.3969Z" fill="#282938"/>
<path d="M115.375 25.4916C114.206 25.5394 113.048 25.2613 112.028 24.6886C111.62 24.4439 111.272 24.1106 111.01 23.7137C110.749 23.3169 110.581 22.8667 110.518 22.3963C110.518 22.1372 110.609 22.0077 110.895 22.0077H112.81C112.901 22.0112 112.99 22.0397 113.065 22.09C113.142 22.1403 113.201 22.2104 113.24 22.2926C113.513 22.992 114.229 23.3417 115.375 23.3417C115.776 23.3599 116.173 23.2798 116.535 23.1085C116.659 23.0526 116.766 22.964 116.845 22.8522C116.922 22.7404 116.969 22.6097 116.978 22.474C116.978 22.1372 116.769 21.9041 116.353 21.7486C115.858 21.585 115.347 21.4764 114.829 21.4249C114.215 21.3558 113.606 21.2476 113.005 21.1011C112.421 20.9697 111.891 20.6674 111.481 20.2334C111.241 19.9383 111.063 19.5971 110.96 19.2309C110.857 18.8647 110.831 18.4814 110.884 18.1049C110.937 17.7283 111.067 17.3665 111.266 17.0419C111.465 16.7174 111.729 16.4371 112.042 16.2184C112.981 15.6237 114.082 15.3341 115.193 15.3895C116.27 15.3534 117.335 15.6181 118.267 16.1537C118.642 16.3653 118.966 16.6577 119.214 17.0094C119.461 17.3612 119.628 17.7635 119.7 18.187C119.7 18.446 119.582 18.5756 119.348 18.5756H117.421C117.339 18.5803 117.259 18.5607 117.188 18.5191C117.119 18.4775 117.064 18.4159 117.029 18.3425C116.9 18.0357 116.658 17.7899 116.353 17.656C116.007 17.4764 115.622 17.3873 115.232 17.397C114.85 17.3764 114.469 17.4521 114.125 17.6172C114.004 17.6638 113.9 17.7453 113.826 17.8515C113.751 17.9578 113.71 18.0836 113.709 18.2129C113.717 18.3901 113.782 18.5599 113.895 18.6974C114.007 18.8349 114.161 18.9329 114.333 18.9771C114.834 19.1645 115.354 19.2949 115.883 19.3657C116.493 19.4454 117.097 19.5578 117.694 19.7024C118.278 19.8337 118.808 20.1359 119.218 20.5701C119.437 20.8093 119.606 21.0892 119.715 21.3937C119.825 21.6983 119.872 22.0215 119.856 22.3445C119.867 22.7921 119.762 23.2351 119.549 23.63C119.337 24.0251 119.025 24.3585 118.644 24.598C117.671 25.2192 116.531 25.5309 115.375 25.4916Z" fill="#282938"/>
<path d="M133.622 24.8449C133.629 24.8908 133.627 24.9379 133.617 24.9831C133.606 25.0283 133.585 25.0708 133.557 25.1083C133.529 25.1457 133.494 25.1771 133.454 25.2009C133.414 25.2245 133.369 25.24 133.323 25.2463C132.847 25.4007 132.351 25.4836 131.851 25.4924C131.356 25.5434 130.856 25.4665 130.4 25.269C129.944 25.0716 129.546 24.7605 129.246 24.3657C128.327 25.1522 127.137 25.5558 125.926 25.4924C125.362 25.5182 124.801 25.4266 124.276 25.2237C123.752 25.0206 123.275 24.7108 122.878 24.3139C122.483 23.8979 122.177 23.4071 121.978 22.8708C121.779 22.3344 121.691 21.7636 121.719 21.1925V16.1286C121.719 15.8825 121.836 15.7529 122.083 15.7529H124.272C124.518 15.7529 124.636 15.8825 124.636 16.1286V20.804C124.612 21.3865 124.812 21.9562 125.196 22.3971C125.387 22.599 125.62 22.7578 125.878 22.8628C126.137 22.9678 126.415 23.0165 126.693 23.0058C126.979 23.0182 127.264 22.9742 127.532 22.8764C127.801 22.7786 128.047 22.6289 128.257 22.4359C128.455 22.2325 128.609 21.9908 128.711 21.7257C128.811 21.4606 128.856 21.1778 128.843 20.8947V16.1286C128.843 15.8825 128.959 15.7529 129.207 15.7529H131.421C131.669 15.7529 131.785 15.8825 131.785 16.1286V22.2287C131.785 22.7338 132.007 22.9799 132.438 22.9799C132.639 22.9876 132.841 22.9658 133.036 22.915C133.086 22.9013 133.137 22.8989 133.188 22.9079C133.238 22.9169 133.286 22.937 133.327 22.967C133.368 22.9969 133.402 23.0357 133.426 23.0806C133.451 23.1254 133.464 23.1751 133.466 23.226L133.622 24.8449Z" fill="#282938"/>
<path d="M154.317 24.8452C154.328 24.8915 154.329 24.9399 154.32 24.9868C154.31 25.0336 154.291 25.0778 154.262 25.1162C154.233 25.1546 154.197 25.1862 154.155 25.2087C154.112 25.2313 154.065 25.2442 154.017 25.2467C153.534 25.4032 153.028 25.4862 152.519 25.4927C151.745 25.5324 150.98 25.3137 150.344 24.8711C150.07 24.6814 149.847 24.4274 149.694 24.1314C149.542 23.8355 149.466 23.5068 149.472 23.1744V20.1308C149.499 19.5501 149.304 18.9807 148.924 18.5378C148.742 18.3354 148.517 18.1758 148.264 18.0705C148.012 17.9653 147.74 17.917 147.466 17.9291C147.22 17.9198 146.974 17.9664 146.749 18.0651C146.523 18.1638 146.323 18.3122 146.164 18.499C145.82 18.933 145.644 19.4753 145.669 20.0273V24.8063C145.669 25.0524 145.551 25.1819 145.305 25.1819H143.103C143.052 25.1882 143.001 25.1828 142.951 25.1662C142.903 25.1496 142.858 25.122 142.822 25.0859C142.786 25.0496 142.758 25.0056 142.742 24.9571C142.724 24.9087 142.719 24.8571 142.725 24.8063V20.1308C142.754 19.5565 142.573 18.991 142.217 18.5378C142.059 18.3475 141.859 18.1942 141.634 18.089C141.41 17.9838 141.164 17.9292 140.915 17.9291C140.649 17.9185 140.385 17.9637 140.137 18.0619C139.891 18.1601 139.668 18.3091 139.483 18.499C139.111 18.9192 138.919 19.4679 138.949 20.0273V24.8063C138.955 24.8571 138.95 24.9087 138.933 24.9571C138.916 25.0056 138.889 25.0496 138.852 25.0859C138.816 25.122 138.771 25.1496 138.723 25.1662C138.674 25.1828 138.623 25.1882 138.571 25.1819H136.448C136.201 25.1819 136.083 25.0524 136.083 24.8063V18.7062C136.099 18.6024 136.089 18.4964 136.056 18.3966C136.023 18.297 135.967 18.2064 135.892 18.1322C135.818 18.058 135.726 18.0021 135.626 17.9691C135.526 17.936 135.42 17.9269 135.316 17.9421H134.885C134.598 17.9421 134.455 17.8385 134.455 17.6312V16.103C134.449 16.0084 134.475 15.9144 134.529 15.8366C134.584 15.7589 134.663 15.702 134.755 15.6756C135.205 15.5127 135.682 15.4337 136.162 15.4424C136.622 15.4035 137.083 15.4946 137.494 15.7055C137.903 15.9163 138.246 16.2382 138.48 16.634C138.919 16.2198 139.44 15.9003 140.009 15.6953C140.578 15.4903 141.184 15.4042 141.788 15.4424C142.374 15.414 142.96 15.5234 143.496 15.762C144.032 16.0005 144.505 16.3613 144.874 16.8153C145.306 16.3495 145.835 15.9847 146.425 15.7472C147.015 15.5098 147.651 15.4057 148.287 15.4424C148.855 15.416 149.423 15.5071 149.954 15.71C150.486 15.9128 150.968 16.223 151.373 16.621C151.769 17.0361 152.076 17.5268 152.275 18.0633C152.474 18.5999 152.562 19.1711 152.533 19.7423V22.2419C152.533 22.7341 152.753 22.9802 153.17 22.9802C153.373 22.9896 153.575 22.9677 153.77 22.9154C154.039 22.9154 154.182 23.019 154.199 23.2263L154.317 24.8452Z" fill="#282938"/>
<path d="M1.60135 14.0697C2.5622 10.2293 4.78749 6.81882 7.92291 4.3815C11.0583 1.94419 14.9236 0.620117 18.9033 0.620117C22.8829 0.620117 26.7482 1.94419 29.8836 4.3815C33.019 6.81882 35.2444 10.2293 36.2052 14.0697H34.6424C32.006 14.0311 29.4236 14.8147 27.2579 16.3104C27.1329 16.4004 27.0024 16.4825 26.8673 16.5564H26.6849C26.5497 16.4825 26.4191 16.4004 26.2942 16.3104C24.1094 14.8493 21.5362 14.069 18.9033 14.069C16.2704 14.069 13.6972 14.8493 11.5124 16.3104C11.3873 16.4004 11.2569 16.4825 11.1216 16.5564H10.9393C10.8041 16.4825 10.6736 16.4004 10.5486 16.3104C8.38295 14.8147 5.8006 14.0311 3.16419 14.0697H1.60135ZM31.8292 22.1903C32.6315 21.569 33.6258 21.2439 34.6424 21.2708H36.7392V17.1133H34.6424C32.8519 17.0918 31.1024 17.646 29.6543 18.6934C28.8394 19.2909 27.8536 19.6132 26.8411 19.6132C25.8288 19.6132 24.843 19.2909 24.0281 18.6934C22.5433 17.6656 20.7775 17.1146 18.9684 17.1146C17.1593 17.1146 15.3935 17.6656 13.9087 18.6934C13.0938 19.2909 12.108 19.6132 11.0956 19.6132C10.0832 19.6132 9.09738 19.2909 8.28249 18.6934C6.81655 17.6326 5.04193 17.0777 3.22931 17.1133H1.06738V21.2708H3.16419C4.18069 21.2439 5.17503 21.569 5.9773 22.1903C7.4594 23.2188 9.22318 23.7703 11.0305 23.7703C12.8378 23.7703 14.6016 23.2188 16.0837 22.1903C16.887 21.5708 17.8805 21.2461 18.8968 21.2708C19.9135 21.2418 20.9086 21.567 21.7099 22.1903C23.1947 23.2181 24.9604 23.7691 26.7695 23.7691C28.5786 23.7691 30.3444 23.2181 31.8292 22.1903ZM31.8292 29.6244C32.6315 29.0031 33.6258 28.678 34.6424 28.7049H36.7392V24.5475H34.6424C32.8519 24.5259 31.1024 25.0801 29.6543 26.1275C28.8394 26.725 27.8536 27.0473 26.8411 27.0473C25.8288 27.0473 24.843 26.725 24.0281 26.1275C22.5433 25.0996 20.7775 24.5487 18.9684 24.5487C17.1593 24.5487 15.3935 25.0996 13.9087 26.1275C13.0938 26.725 12.108 27.0473 11.0956 27.0473C10.0832 27.0473 9.09738 26.725 8.28249 26.1275C6.81655 25.0667 5.04193 24.5118 3.22931 24.5475H1.06738V28.7049H3.16419C4.18069 28.678 5.17503 29.0031 5.9773 29.6244C7.4594 30.653 9.22318 31.2044 11.0305 31.2044C12.8378 31.2044 14.6016 30.653 16.0837 29.6244C16.887 29.005 17.8805 28.6802 18.8968 28.7049C19.9135 28.6759 20.9086 29.0011 21.7099 29.6244C23.1947 30.6522 24.9604 31.2033 26.7695 31.2033C28.5786 31.2033 30.3444 30.6522 31.8292 29.6244Z" fill="#282938"/>
</g>
<defs>
<clipPath id="clip0_904_1069">
<rect width="153.743" height="32" fill="white" transform="translate(0.723633)"/>
</clipPath>
</defs>
</svg>
