<svg width="136" height="32" viewBox="0 0 136 32" fill="none" xmlns="http://www.w3.org/2000/svg">
<g clip-path="url(#clip0_904_1066)">
<path d="M40.1338 9.3468H43.5163V23.0049H40.1338V9.3468ZM44.8581 17.848C44.8581 14.47 46.9327 12.4545 50.1348 12.4545C53.3369 12.4545 55.4115 14.47 55.4115 17.848C55.4115 21.2259 53.382 23.2527 50.1348 23.2527C46.8875 23.2527 44.8581 21.2822 44.8581 17.848ZM52.0177 17.848C52.0177 15.9901 51.2848 14.8979 50.1348 14.8979C48.9847 14.8979 48.2631 16.0239 48.2631 17.848C48.2631 19.672 48.9734 20.7755 50.1348 20.7755C51.2961 20.7755 52.0177 19.7396 52.0177 17.8592V17.848ZM56.6856 23.6693H59.9329C60.0874 24.0121 60.3487 24.296 60.6778 24.4786C61.0069 24.6612 61.3863 24.7328 61.7594 24.6826C63.0448 24.6826 63.7213 23.9846 63.7213 22.9712V21.0795H63.6536C63.3841 21.6593 62.9468 22.1451 62.3982 22.4743C61.8495 22.8034 61.2146 22.9608 60.5755 22.9262C58.1063 22.9262 56.4714 21.0457 56.4714 17.8142C56.4714 14.5826 58.0273 12.5446 60.6207 12.5446C61.2798 12.5188 61.9311 12.6948 62.4873 13.0489C63.0434 13.4032 63.478 13.9186 63.7325 14.5263V12.6459H67.1151V22.8923C67.1151 25.3583 64.939 26.8896 61.7256 26.8896C58.7377 26.8896 56.8773 25.5496 56.6856 23.6806V23.6693ZM63.7325 17.8367C63.7325 16.1928 62.9771 15.1568 61.782 15.1568C60.5868 15.1568 59.854 16.1815 59.854 17.8367C59.854 19.4919 60.5755 20.4264 61.782 20.4264C62.9884 20.4264 63.7325 19.5144 63.7325 17.848V17.8367ZM68.3892 17.8367C68.3892 14.4587 70.4638 12.4432 73.6659 12.4432C76.8681 12.4432 78.954 14.4587 78.954 17.8367C78.954 21.2146 76.9245 23.2414 73.6659 23.2414C70.4075 23.2414 68.3892 21.2822 68.3892 17.848V17.8367ZM75.5489 17.8367C75.5489 15.9788 74.816 14.8866 73.6659 14.8866C72.5159 14.8866 71.8507 16.0239 71.8507 17.8592C71.8507 19.6945 72.561 20.7868 73.7111 20.7868C74.8611 20.7868 75.5489 19.7396 75.5489 17.8592V17.8367ZM80.2393 10.1912C80.2305 9.85026 80.3232 9.51426 80.5058 9.22591C80.6884 8.93755 80.9526 8.70978 81.2649 8.57156C81.5772 8.43333 81.9237 8.39083 82.2602 8.44944C82.5967 8.50806 82.9083 8.66514 83.1553 8.90075C83.4024 9.13639 83.5738 9.44004 83.6479 9.77311C83.7219 10.1061 83.6954 10.4536 83.5714 10.7716C83.4475 11.0895 83.2318 11.3635 82.9518 11.5589C82.6716 11.7543 82.3398 11.8622 81.9982 11.869C81.7718 11.8845 81.5446 11.8531 81.3309 11.7768C81.1172 11.7005 80.9217 11.5808 80.7565 11.4254C80.5913 11.2699 80.4601 11.0821 80.3711 10.8736C80.2821 10.665 80.2372 10.4404 80.2393 10.2138V10.1912ZM80.2393 12.6684H83.6219V23.0049H80.2393V12.6684ZM95.9009 17.8367C95.9009 21.2146 94.4011 23.14 91.8306 23.14C91.1713 23.1824 90.5147 23.0214 89.9505 22.6791C89.3854 22.3368 88.9397 21.8295 88.6731 21.2259H88.6054V26.3153H85.2229V12.6459H88.6054V14.4925H88.6731C88.9272 13.879 89.3645 13.3585 89.9256 13.0019C90.4862 12.6454 91.1437 12.4699 91.8075 12.4995C94.4011 12.5446 95.9453 14.4813 95.9453 17.8592L95.9009 17.8367ZM92.5183 17.8367C92.5183 16.1928 91.7622 15.1456 90.5786 15.1456C89.3947 15.1456 88.6393 16.204 88.628 17.8367C88.6167 19.4694 89.3947 20.5166 90.5786 20.5166C91.7622 20.5166 92.5183 19.4919 92.5183 17.8592V17.8367ZM101.707 12.432C104.514 12.432 106.217 13.7607 106.296 15.8888H103.218C103.218 15.1568 102.609 14.6952 101.674 14.6952C100.737 14.6952 100.32 15.0555 100.32 15.5848C100.32 16.1139 100.693 16.2828 101.448 16.4405L103.612 16.8796C105.676 17.3187 106.555 18.152 106.555 19.7171C106.555 21.8565 104.605 23.2302 101.73 23.2302C98.8543 23.2302 96.9716 21.8565 96.8249 19.7509H100.083C100.185 20.5166 100.794 20.9669 101.786 20.9669C102.778 20.9669 103.229 20.6404 103.229 20.1C103.229 19.5594 102.914 19.4469 102.102 19.2779L100.152 18.8614C98.1329 18.4448 97.0728 17.3751 97.0728 15.7987C97.0959 13.7719 98.9112 12.4545 101.707 12.4545V12.432ZM117.842 22.9824H114.583V21.057H114.515C114.337 21.7034 113.941 22.2693 113.396 22.6605C112.85 23.0517 112.187 23.2448 111.517 23.2076C111.002 23.2368 110.489 23.1555 110.009 22.9692C109.529 22.7828 109.095 22.4959 108.736 22.1276C108.377 21.7593 108.101 21.3184 107.927 20.8345C107.753 20.3507 107.685 19.8352 107.728 19.323V12.6459H111.111V18.5461C111.111 19.7734 111.742 20.4264 112.791 20.4264C113.037 20.427 113.279 20.375 113.503 20.2739C113.728 20.1729 113.928 20.0253 114.09 19.8408C114.252 19.6563 114.373 19.4393 114.444 19.2044C114.516 18.9695 114.537 18.7219 114.505 18.4785V12.6459H117.887L117.842 22.9824ZM119.477 12.6459H122.747V14.6389H122.814C122.994 14.001 123.38 13.4406 123.912 13.0453C124.445 12.65 125.093 12.4423 125.757 12.4545C126.432 12.4006 127.102 12.6023 127.635 13.0195C128.168 13.4368 128.524 14.0391 128.632 14.7064H128.7C128.904 14.032 129.328 13.4446 129.904 13.0368C130.479 12.6291 131.174 12.4242 131.88 12.4545C132.339 12.4391 132.798 12.5205 133.224 12.6934C133.651 12.8663 134.035 13.1269 134.354 13.4582C134.673 13.7896 134.919 14.1842 135.076 14.6165C135.232 15.0488 135.295 15.5091 135.261 15.9676V23.0049H131.88V16.8683C131.88 15.7424 131.372 15.2244 130.425 15.2244C130.214 15.2226 130.004 15.2661 129.811 15.3519C129.618 15.4377 129.446 15.5638 129.307 15.7217C129.166 15.8797 129.062 16.0658 129 16.2675C128.938 16.4691 128.92 16.6817 128.948 16.8909V23.0049H125.735V16.8233C125.735 15.7874 125.227 15.2244 124.302 15.2244C124.089 15.2245 123.878 15.2698 123.683 15.3573C123.489 15.4448 123.314 15.5727 123.172 15.7322C123.031 15.8919 122.924 16.0796 122.86 16.2832C122.797 16.4868 122.778 16.7016 122.803 16.9134V23.0049H119.42L119.477 12.6459Z" fill="#282938"/>
<path d="M30.674 9.96624C30.1002 8.65605 29.3407 7.435 28.4189 6.34062C27.0563 4.67455 25.3558 3.31555 23.4293 2.35308C21.5028 1.39061 19.3941 0.846471 17.2419 0.756497C15.0897 0.666522 12.9428 1.03274 10.9425 1.83105C8.94227 2.62937 7.13398 3.84167 5.63667 5.38819C4.13935 6.93469 2.98698 8.78034 2.2554 10.8037C1.52381 12.827 1.22959 14.9821 1.39211 17.1271C1.55464 19.2721 2.17021 21.3585 3.19832 23.2488C4.22643 25.1392 5.64376 26.7907 7.35703 28.0946C8.45636 28.9479 9.67108 29.6417 10.9651 30.1551C12.7793 30.8976 14.7209 31.28 16.6816 31.2811C20.7287 31.2722 24.6071 29.6612 27.4667 26.8012C30.3263 23.9413 31.9338 20.0657 31.9367 16.024C31.9398 13.9393 31.5097 11.8766 30.674 9.96624ZM16.6703 3.8522C18.431 3.85201 20.1703 4.23631 21.7666 4.97818C21.3774 5.14614 20.9681 5.26345 20.5489 5.32724C19.1695 5.52664 17.8916 6.16618 16.9061 7.15039C15.9205 8.13461 15.2802 9.41069 15.0804 10.7883C14.9928 11.5608 14.641 12.2795 14.0843 12.8231C13.5277 13.3667 12.8003 13.7019 12.0249 13.7721C10.6456 13.9715 9.36768 14.611 8.38213 15.5952C7.39659 16.5795 6.75618 17.8556 6.5565 19.2331C6.4889 19.9677 6.17506 20.658 5.66577 21.1923C4.78705 19.3382 4.3923 17.2921 4.51827 15.2446C4.64424 13.1971 5.28681 11.2147 6.38621 9.4818C7.48561 7.749 9.0061 6.32206 10.8061 5.33382C12.6063 4.34558 14.6274 3.82814 16.6816 3.82968L16.6703 3.8522ZM7.34576 23.906C7.48106 23.7821 7.61636 23.6694 7.75167 23.5343C8.75476 22.5631 9.39864 21.2811 9.57823 19.8974C9.65105 19.1197 9.99881 18.3932 10.5592 17.8481C11.0984 17.2876 11.8242 16.9432 12.6 16.8798C13.9794 16.6804 15.2572 16.0408 16.2427 15.0566C17.2283 14.0725 17.8687 12.7963 18.0684 11.4188C18.1171 10.6053 18.4668 9.83886 19.0493 9.2682C19.6019 8.71853 20.3346 8.38664 21.1127 8.3336C22.3799 8.15949 23.5618 7.59689 24.4952 6.72345C25.558 7.60405 26.4586 8.66341 27.1561 9.85371C27.1133 9.91149 27.0641 9.96438 27.0095 10.0113C26.4714 10.5768 25.7465 10.9287 24.9688 11.0022C23.5879 11.1981 22.3082 11.8366 21.3219 12.8214C20.3358 13.8062 19.6965 15.0843 19.5003 16.4632C19.4209 17.2383 19.0755 17.9622 18.5227 18.5122C17.97 19.0622 17.2438 19.4044 16.4673 19.4808C15.0839 19.6787 13.8013 20.317 12.81 21.3008C11.8188 22.2846 11.1717 23.5615 10.9651 24.9418C10.9044 25.4921 10.7151 26.0206 10.4126 26.4845C9.25576 25.7985 8.21968 24.9274 7.34576 23.906ZM16.6703 28.2522C15.5261 28.2534 14.3876 28.0942 13.2878 27.7793C13.664 27.079 13.9085 26.3157 14.0093 25.5273C14.0884 24.7539 14.4321 24.0314 14.9826 23.4816C15.5331 22.9319 16.2566 22.5886 17.0311 22.5097C18.4125 22.3126 19.6929 21.674 20.6807 20.6896C21.6685 19.7052 22.3105 18.4278 22.5108 17.0487C22.5898 16.2753 22.9335 15.5527 23.4841 15.003C24.0345 14.4533 24.758 14.11 25.5325 14.031C26.5721 13.896 27.5629 13.5095 28.4189 12.9051C28.8943 14.7043 28.9505 16.5884 28.5836 18.4126C28.2165 20.237 27.4359 21.9531 26.3017 23.4294C25.1674 24.9056 23.7095 26.1029 22.04 26.9291C20.3704 27.7553 18.5336 28.1887 16.6703 28.1959V28.2522Z" fill="#282938"/>
</g>
<defs>
<clipPath id="clip0_904_1066">
<rect width="135.055" height="32" fill="white" transform="translate(0.81543)"/>
</clipPath>
</defs>
</svg>
