<svg width="35" height="35" viewBox="0 0 35 35" fill="none" xmlns="http://www.w3.org/2000/svg">
<path d="M8.80609 27.5075C8.40555 27.9078 8.40555 28.5572 8.80609 28.9575L11.4646 31.616L8.44934 34.6313C8.04907 35.0318 7.39965 35.0318 6.99937 34.6313L0.232049 27.864C-0.168495 27.4637 -0.168495 26.8143 0.232049 26.414L26.414 0.232049C26.8143 -0.168495 27.4637 -0.168495 27.864 0.232049L34.6313 6.99911C34.8316 7.19938 34.9317 7.46187 34.9317 7.72436C34.9317 7.98658 34.8316 8.24907 34.6313 8.44934L31.616 11.4646L27.9908 7.83918C27.5903 7.43864 26.9411 7.43864 26.5406 7.83918C26.1403 8.23973 26.1403 8.88887 26.5406 9.28942L30.1658 12.9146L27.8757 15.2049L25.2172 12.5461C24.8169 12.1458 24.1675 12.1458 23.7669 12.5461C23.3667 12.9467 23.3667 13.5958 23.7669 13.9963L26.4255 16.6549L24.1354 18.9452L20.5103 15.3197C20.1097 14.9195 19.4606 14.9195 19.06 15.3197C18.6597 15.7203 18.6597 16.3694 19.06 16.77L22.6852 20.3952L20.3952 22.6855L17.7366 20.0269C17.3361 19.6264 16.6869 19.6264 16.2864 20.0269C15.8861 20.4272 15.8861 21.0764 16.2864 21.4769L18.9449 24.1354L16.6549 26.4258L13.0297 22.8003C12.6292 22.4 11.98 22.4 11.5795 22.8003C11.1792 23.2008 11.1792 23.85 11.5795 24.2505L15.2047 27.8757L12.9146 30.166L10.2561 27.5075C9.85579 27.107 9.20637 27.107 8.80609 27.5075Z" fill="#2405F2"/>
</svg>
