<svg width="639" height="409" viewBox="0 0 639 409" fill="none" xmlns="http://www.w3.org/2000/svg">
<path fill-rule="evenodd" clip-rule="evenodd" d="M199.77 261.797H13.318C7.18857 261.797 2.21967 265.821 2.21967 270.784V382.216C2.21967 387.179 7.18857 391.203 13.318 391.203H199.77C205.9 391.203 210.869 387.179 210.869 382.216V270.784C210.869 265.821 205.9 261.797 199.77 261.797ZM13.318 260C5.96268 260 0 264.828 0 270.784V382.216C0 388.172 5.96268 393 13.318 393H199.77C207.126 393 213.088 388.172 213.088 382.216V270.784C213.088 264.828 207.126 260 199.77 260H13.318Z" fill="url(#paint0_linear_779_520)"/>
<path d="M17.2295 281.506C17.2295 279.527 18.9653 277.922 21.1065 277.922H164.986C167.127 277.922 168.863 279.527 168.863 281.506C168.863 283.486 167.127 285.09 164.986 285.09H21.1065C18.9653 285.09 17.2295 283.486 17.2295 281.506Z" fill="url(#paint1_linear_779_520)"/>
<path d="M17.2295 299.426C17.2295 297.447 18.9653 295.842 21.1065 295.842H67.6303C69.7715 295.842 71.5073 297.447 71.5073 299.426C71.5073 301.406 69.7715 303.01 67.6303 303.01H21.1065C18.9653 303.01 17.2295 301.406 17.2295 299.426Z" fill="url(#paint2_linear_779_520)"/>
<path d="M78.4014 299.426C78.4014 297.447 80.1372 295.842 82.2784 295.842H100.371C102.512 295.842 104.248 297.447 104.248 299.426C104.248 301.406 102.512 303.01 100.371 303.01H82.2783C80.1371 303.01 78.4014 301.406 78.4014 299.426Z" fill="url(#paint3_linear_779_520)"/>
<path d="M17.2295 371.112C17.2295 369.132 18.9653 367.527 21.1065 367.527H67.6303C69.7715 367.527 71.5073 369.132 71.5073 371.112C71.5073 373.091 69.7715 374.696 67.6303 374.696H21.1065C18.9653 374.696 17.2295 373.091 17.2295 371.112Z" fill="url(#paint4_linear_779_520)"/>
<path d="M78.4014 371.112C78.4014 369.132 80.1372 367.527 82.2784 367.527H100.371C102.512 367.527 104.248 369.132 104.248 371.112C104.248 373.091 102.512 374.696 100.371 374.696H82.2783C80.1371 374.696 78.4014 373.091 78.4014 371.112Z" fill="url(#paint5_linear_779_520)"/>
<path d="M48.2451 335.27C48.2451 333.29 49.9809 331.686 52.1221 331.686H65.0454C67.1866 331.686 68.9224 333.29 68.9224 335.27C68.9224 337.249 67.1866 338.854 65.0454 338.854H52.1221C49.9809 338.854 48.2451 337.249 48.2451 335.27Z" fill="url(#paint6_linear_779_520)"/>
<path d="M76.6777 335.27C76.6777 333.29 78.4135 331.686 80.5547 331.686H135.694C137.835 331.686 139.571 333.29 139.571 335.27C139.571 337.249 137.835 338.854 135.694 338.854H80.5547C78.4135 338.854 76.6777 337.249 76.6777 335.27Z" fill="url(#paint7_linear_779_520)"/>
<path d="M17.2295 335.27C17.2295 333.29 18.9653 331.686 21.1065 331.686H39.1991C41.3403 331.686 43.0761 333.29 43.0761 335.27C43.0761 337.249 41.3403 338.854 39.1991 338.854H21.1065C18.9653 338.854 17.2295 337.249 17.2295 335.27Z" fill="url(#paint8_linear_779_520)"/>
<path d="M17.2295 317.348C17.2295 315.368 18.9653 313.764 21.1065 313.764H83.9998C86.141 313.764 87.8768 315.368 87.8768 317.348C87.8768 319.327 86.141 320.932 83.9998 320.932H21.1065C18.9653 320.932 17.2295 319.327 17.2295 317.348Z" fill="url(#paint9_linear_779_520)"/>
<path d="M93.9072 317.348C93.9072 315.368 95.643 313.764 97.7842 313.764H127.077C129.218 313.764 130.954 315.368 130.954 317.348C130.954 319.327 129.218 320.932 127.077 320.932H97.7842C95.643 320.932 93.9072 319.327 93.9072 317.348Z" fill="url(#paint10_linear_779_520)"/>
<path d="M17.2295 353.192C17.2295 351.212 18.9653 349.607 21.1065 349.607H83.9998C86.141 349.607 87.8768 351.212 87.8768 353.192C87.8768 355.171 86.141 356.776 83.9998 356.776H21.1065C18.9653 356.776 17.2295 355.171 17.2295 353.192Z" fill="url(#paint11_linear_779_520)"/>
<path d="M88.6973 17.0253C88.6973 7.62247 96.9422 0 107.113 0H587.859C598.03 0 606.275 7.62248 606.275 17.0253V344.09C606.275 353.493 598.03 361.115 587.859 361.115H107.113C96.9422 361.115 88.6973 353.493 88.6973 344.09V17.0253Z" fill="url(#paint12_linear_779_520)"/>
<path fill-rule="evenodd" clip-rule="evenodd" d="M587.591 1.79213H106.845C97.7453 1.79213 90.3682 8.61224 90.3682 17.0253V344.09C90.3682 352.503 97.7453 359.323 106.845 359.323H587.591C596.691 359.323 604.068 352.503 604.068 344.09V17.0253C604.068 8.61225 596.691 1.79213 587.591 1.79213ZM106.845 0C96.6747 0 88.4297 7.62247 88.4297 17.0253V344.09C88.4297 353.493 96.6747 361.115 106.845 361.115H587.591C597.762 361.115 606.007 353.493 606.007 344.09V17.0253C606.007 7.62248 597.762 0 587.591 0H106.845Z" fill="url(#paint13_linear_779_520)"/>
<path d="M100.06 33.6028C100.06 23.4576 108.955 15.2334 119.929 15.2334H566.751C577.725 15.2334 586.621 23.4576 586.621 33.6028C586.621 43.7479 577.725 51.9722 566.751 51.9722H119.929C108.955 51.9722 100.06 43.7479 100.06 33.6028Z" fill="url(#paint14_linear_779_520)"/>
<path fill-rule="evenodd" clip-rule="evenodd" d="M572.946 72.7973H386.494C380.364 72.7973 375.395 76.8207 375.395 81.7838V193.216C375.395 198.179 380.364 202.203 386.494 202.203H572.946C579.076 202.203 584.044 198.179 584.044 193.216V81.7838C584.044 76.8207 579.076 72.7973 572.946 72.7973ZM386.494 71C379.138 71 373.176 75.8281 373.176 81.7838V193.216C373.176 199.172 379.138 204 386.494 204H572.946C580.301 204 586.264 199.172 586.264 193.216V81.7838C586.264 75.8281 580.301 71 572.946 71H386.494Z" fill="url(#paint15_linear_779_520)"/>
<path d="M390.405 92.5061C390.405 90.5266 392.141 88.9219 394.282 88.9219H538.161C540.303 88.9219 542.038 90.5266 542.038 92.5061C542.038 94.4857 540.303 96.0904 538.161 96.0904H394.282C392.141 96.0904 390.405 94.4857 390.405 92.5061Z" fill="url(#paint16_linear_779_520)"/>
<path d="M390.405 110.426C390.405 108.447 392.141 106.842 394.282 106.842H440.806C442.947 106.842 444.683 108.447 444.683 110.426C444.683 112.406 442.947 114.01 440.806 114.01H394.282C392.141 114.01 390.405 112.406 390.405 110.426Z" fill="url(#paint17_linear_779_520)"/>
<path d="M451.571 110.426C451.571 108.447 453.307 106.842 455.448 106.842H473.541C475.682 106.842 477.418 108.447 477.418 110.426C477.418 112.406 475.682 114.01 473.541 114.01H455.448C453.307 114.01 451.571 112.406 451.571 110.426Z" fill="url(#paint18_linear_779_520)"/>
<path d="M390.405 182.112C390.405 180.132 392.141 178.527 394.282 178.527H440.806C442.947 178.527 444.683 180.132 444.683 182.112C444.683 184.091 442.947 185.696 440.806 185.696H394.282C392.141 185.696 390.405 184.091 390.405 182.112Z" fill="url(#paint19_linear_779_520)"/>
<path d="M451.571 182.112C451.571 180.132 453.307 178.527 455.448 178.527H473.541C475.682 178.527 477.418 180.132 477.418 182.112C477.418 184.091 475.682 185.696 473.541 185.696H455.448C453.307 185.696 451.571 184.091 451.571 182.112Z" fill="url(#paint20_linear_779_520)"/>
<path d="M421.422 146.27C421.422 144.29 423.158 142.686 425.299 142.686H438.222C440.363 142.686 442.099 144.29 442.099 146.27C442.099 148.249 440.363 149.854 438.222 149.854H425.299C423.158 149.854 421.422 148.249 421.422 146.27Z" fill="url(#paint21_linear_779_520)"/>
<path d="M449.854 146.27C449.854 144.29 451.59 142.686 453.731 142.686H508.871C511.012 142.686 512.748 144.29 512.748 146.27C512.748 148.249 511.012 149.854 508.871 149.854H453.731C451.59 149.854 449.854 148.249 449.854 146.27Z" fill="url(#paint22_linear_779_520)"/>
<path d="M390.405 146.27C390.405 144.29 392.141 142.686 394.282 142.686H412.375C414.516 142.686 416.252 144.29 416.252 146.27C416.252 148.249 414.516 149.854 412.375 149.854H394.282C392.141 149.854 390.405 148.249 390.405 146.27Z" fill="url(#paint23_linear_779_520)"/>
<path d="M390.405 128.348C390.405 126.368 392.141 124.764 394.282 124.764H457.176C459.317 124.764 461.053 126.368 461.053 128.348C461.053 130.327 459.317 131.932 457.176 131.932H394.282C392.141 131.932 390.405 130.327 390.405 128.348Z" fill="url(#paint24_linear_779_520)"/>
<path d="M467.084 128.348C467.084 126.368 468.82 124.764 470.961 124.764H500.254C502.395 124.764 504.131 126.368 504.131 128.348C504.131 130.327 502.395 131.932 500.254 131.932H470.961C468.82 131.932 467.084 130.327 467.084 128.348Z" fill="url(#paint25_linear_779_520)"/>
<path d="M390.405 164.192C390.405 162.212 392.141 160.607 394.282 160.607H457.176C459.317 160.607 461.053 162.212 461.053 164.192C461.053 166.171 459.317 167.776 457.176 167.776H394.282C392.141 167.776 390.405 166.171 390.405 164.192Z" fill="url(#paint26_linear_779_520)"/>
<path d="M135.579 33.8045C135.579 37.1979 132.603 39.9488 128.931 39.9488C125.26 39.9488 122.283 37.1979 122.283 33.8045C122.283 30.4111 125.26 27.6602 128.931 27.6602C132.603 27.6602 135.579 30.4111 135.579 33.8045Z" fill="#FED280"/>
<path d="M158.85 33.8045C158.85 37.1979 155.873 39.9488 152.202 39.9488C148.53 39.9488 145.554 37.1979 145.554 33.8045C145.554 30.4111 148.53 27.6602 152.202 27.6602C155.873 27.6602 158.85 30.4111 158.85 33.8045Z" fill="#8CFEE3" fill-opacity="0.9"/>
<path d="M182.116 33.8045C182.116 37.1979 179.14 39.9488 175.468 39.9488C171.797 39.9488 168.82 37.1979 168.82 33.8045C168.82 30.4111 171.797 27.6602 175.468 27.6602C179.14 27.6602 182.116 30.4111 182.116 33.8045Z" fill="#FF8DA9" fill-opacity="0.9"/>
<rect x="111.413" y="71" width="245.538" height="133" rx="13" fill="url(#paint27_linear_779_520)"/>
<rect x="111.413" y="219" width="474.852" height="118" rx="13" fill="url(#paint28_linear_779_520)"/>
<rect x="128.718" y="81" width="68.145" height="54" rx="6" fill="url(#paint29_linear_779_520)"/>
<rect x="205.515" y="81" width="135.208" height="54" rx="6" fill="url(#paint30_linear_779_520)"/>
<rect x="205.515" y="141" width="62.7367" height="54" rx="6" fill="url(#paint31_linear_779_520)"/>
<rect x="273.663" y="141" width="62.7367" height="54" rx="6" fill="url(#paint32_linear_779_520)"/>
<rect x="128.718" y="141" width="68.145" height="8" rx="4" fill="#303262" fill-opacity="0.5"/>
<rect x="128.718" y="172" width="68.145" height="8" rx="4" fill="#303262" fill-opacity="0.5"/>
<rect x="128.718" y="156" width="68.145" height="8" rx="4" fill="#303262" fill-opacity="0.5"/>
<rect x="128.718" y="187" width="68.145" height="8" rx="4" fill="#303262" fill-opacity="0.5"/>
<path fill-rule="evenodd" clip-rule="evenodd" d="M576.263 370.326C564.718 370.326 555.359 361.673 555.359 351C555.359 340.327 564.718 331.674 576.263 331.674C587.808 331.674 597.167 340.327 597.167 351C597.167 361.673 587.808 370.326 576.263 370.326ZM639 359.742V342.258L624.094 338.756C623.001 335.098 621.431 331.623 619.447 328.392L627.311 316.169L613.938 303.806L600.717 311.076C597.222 309.243 593.464 307.791 589.507 306.78L585.719 293H566.807L563.02 306.78C559.062 307.791 555.303 309.243 551.809 311.076L538.588 303.806L525.215 316.169L533.078 328.392C531.096 331.623 529.525 335.098 528.432 338.756L513.526 342.258V359.742L528.432 363.244C529.525 366.902 531.096 370.377 533.078 373.608L525.215 385.831L538.588 398.194L551.809 390.924C555.303 392.757 559.062 394.209 563.02 395.22L566.807 409H585.719L589.507 395.22C593.464 394.209 597.222 392.757 600.717 390.924L613.938 398.194L627.311 385.831L619.447 373.608C621.431 370.377 623.001 366.902 624.094 363.244L639 359.742Z" fill="#FCD980"/>
<defs>
<linearGradient id="paint0_linear_779_520" x1="106.544" y1="260" x2="182.545" y2="601.572" gradientUnits="userSpaceOnUse">
<stop stop-color="white" stop-opacity="0.17"/>
<stop offset="1" stop-opacity="0"/>
</linearGradient>
<linearGradient id="paint1_linear_779_520" x1="93.0461" y1="277.922" x2="101.242" y2="321.574" gradientUnits="userSpaceOnUse">
<stop stop-color="white" stop-opacity="0.56"/>
<stop offset="1" stop-color="#C4C4C4" stop-opacity="0"/>
</linearGradient>
<linearGradient id="paint2_linear_779_520" x1="44.3684" y1="295.842" x2="62.9577" y2="331.282" gradientUnits="userSpaceOnUse">
<stop stop-color="#F9C746" stop-opacity="0.52"/>
<stop offset="1" stop-color="#C4C4C4" stop-opacity="0"/>
</linearGradient>
<linearGradient id="paint3_linear_779_520" x1="91.3247" y1="295.842" x2="113.815" y2="316.26" gradientUnits="userSpaceOnUse">
<stop stop-color="#84EBE5" stop-opacity="0.62"/>
<stop offset="1" stop-color="#C4C4C4" stop-opacity="0"/>
</linearGradient>
<linearGradient id="paint4_linear_779_520" x1="44.3684" y1="367.527" x2="62.9577" y2="402.968" gradientUnits="userSpaceOnUse">
<stop stop-color="white" stop-opacity="0.56"/>
<stop offset="1" stop-color="#C4C4C4" stop-opacity="0"/>
</linearGradient>
<linearGradient id="paint5_linear_779_520" x1="91.3247" y1="367.527" x2="113.815" y2="387.945" gradientUnits="userSpaceOnUse">
<stop stop-color="#F47D9E"/>
<stop offset="1" stop-color="#C4C4C4" stop-opacity="0"/>
</linearGradient>
<linearGradient id="paint6_linear_779_520" x1="58.5837" y1="331.686" x2="80.0708" y2="347.291" gradientUnits="userSpaceOnUse">
<stop stop-color="#F2C87D"/>
<stop offset="1" stop-color="#C4C4C4" stop-opacity="0"/>
</linearGradient>
<linearGradient id="paint7_linear_779_520" x1="108.124" y1="331.686" x2="125.102" y2="369.191" gradientUnits="userSpaceOnUse">
<stop stop-color="white" stop-opacity="0.62"/>
<stop offset="1" stop-color="#C4C4C4" stop-opacity="0"/>
</linearGradient>
<linearGradient id="paint8_linear_779_520" x1="24.1219" y1="329.893" x2="63.6632" y2="335.933" gradientUnits="userSpaceOnUse">
<stop stop-color="#F37D9D"/>
<stop offset="1" stop-color="#C4C4C4" stop-opacity="0"/>
</linearGradient>
<linearGradient id="paint9_linear_779_520" x1="52.5531" y1="313.764" x2="68.2202" y2="352.641" gradientUnits="userSpaceOnUse">
<stop stop-color="white" stop-opacity="0.58"/>
<stop offset="1" stop-color="#C4C4C4" stop-opacity="0"/>
</linearGradient>
<linearGradient id="paint10_linear_779_520" x1="112.431" y1="313.764" x2="134.265" y2="342.175" gradientUnits="userSpaceOnUse">
<stop stop-color="white" stop-opacity="0.45"/>
<stop offset="1" stop-color="#C4C4C4" stop-opacity="0"/>
</linearGradient>
<linearGradient id="paint11_linear_779_520" x1="52.5531" y1="349.607" x2="68.2202" y2="388.485" gradientUnits="userSpaceOnUse">
<stop stop-color="#70D1E7"/>
<stop offset="1" stop-color="#C4C4C4" stop-opacity="0"/>
</linearGradient>
<linearGradient id="paint12_linear_779_520" x1="347.486" y1="0" x2="462.406" y2="528.848" gradientUnits="userSpaceOnUse">
<stop stop-color="white" stop-opacity="0.16"/>
<stop offset="1" stop-color="#C4C4C4" stop-opacity="0"/>
</linearGradient>
<linearGradient id="paint13_linear_779_520" x1="347.218" y1="1.34022e-05" x2="693.624" y2="270.314" gradientUnits="userSpaceOnUse">
<stop stop-color="white" stop-opacity="0.17"/>
<stop offset="1" stop-opacity="0"/>
</linearGradient>
<linearGradient id="paint14_linear_779_520" x1="343.34" y1="15.2334" x2="407.063" y2="227.727" gradientUnits="userSpaceOnUse">
<stop stop-color="white" stop-opacity="0.15"/>
<stop offset="1" stop-color="#C4C4C4" stop-opacity="0"/>
</linearGradient>
<linearGradient id="paint15_linear_779_520" x1="479.72" y1="71" x2="555.721" y2="412.572" gradientUnits="userSpaceOnUse">
<stop stop-color="white" stop-opacity="0.17"/>
<stop offset="1" stop-opacity="0"/>
</linearGradient>
<linearGradient id="paint16_linear_779_520" x1="466.222" y1="88.9219" x2="474.418" y2="132.574" gradientUnits="userSpaceOnUse">
<stop stop-color="white" stop-opacity="0.56"/>
<stop offset="1" stop-color="#C4C4C4" stop-opacity="0"/>
</linearGradient>
<linearGradient id="paint17_linear_779_520" x1="417.544" y1="106.842" x2="436.134" y2="142.282" gradientUnits="userSpaceOnUse">
<stop stop-color="#F9C746" stop-opacity="0.52"/>
<stop offset="1" stop-color="#C4C4C4" stop-opacity="0"/>
</linearGradient>
<linearGradient id="paint18_linear_779_520" x1="464.495" y1="106.842" x2="486.985" y2="127.26" gradientUnits="userSpaceOnUse">
<stop stop-color="#84EBE5" stop-opacity="0.62"/>
<stop offset="1" stop-color="#C4C4C4" stop-opacity="0"/>
</linearGradient>
<linearGradient id="paint19_linear_779_520" x1="417.544" y1="178.527" x2="436.134" y2="213.968" gradientUnits="userSpaceOnUse">
<stop stop-color="white" stop-opacity="0.56"/>
<stop offset="1" stop-color="#C4C4C4" stop-opacity="0"/>
</linearGradient>
<linearGradient id="paint20_linear_779_520" x1="464.495" y1="178.527" x2="486.985" y2="198.945" gradientUnits="userSpaceOnUse">
<stop stop-color="#F47D9E"/>
<stop offset="1" stop-color="#C4C4C4" stop-opacity="0"/>
</linearGradient>
<linearGradient id="paint21_linear_779_520" x1="431.761" y1="142.686" x2="453.248" y2="158.291" gradientUnits="userSpaceOnUse">
<stop stop-color="#F2C87D"/>
<stop offset="1" stop-color="#C4C4C4" stop-opacity="0"/>
</linearGradient>
<linearGradient id="paint22_linear_779_520" x1="481.301" y1="142.686" x2="498.279" y2="180.191" gradientUnits="userSpaceOnUse">
<stop stop-color="white" stop-opacity="0.62"/>
<stop offset="1" stop-color="#C4C4C4" stop-opacity="0"/>
</linearGradient>
<linearGradient id="paint23_linear_779_520" x1="397.298" y1="140.893" x2="436.839" y2="146.933" gradientUnits="userSpaceOnUse">
<stop stop-color="#F37D9D"/>
<stop offset="1" stop-color="#C4C4C4" stop-opacity="0"/>
</linearGradient>
<linearGradient id="paint24_linear_779_520" x1="425.729" y1="124.764" x2="441.396" y2="163.641" gradientUnits="userSpaceOnUse">
<stop stop-color="white" stop-opacity="0.58"/>
<stop offset="1" stop-color="#C4C4C4" stop-opacity="0"/>
</linearGradient>
<linearGradient id="paint25_linear_779_520" x1="485.607" y1="124.764" x2="507.441" y2="153.175" gradientUnits="userSpaceOnUse">
<stop stop-color="white" stop-opacity="0.45"/>
<stop offset="1" stop-color="#C4C4C4" stop-opacity="0"/>
</linearGradient>
<linearGradient id="paint26_linear_779_520" x1="425.729" y1="160.607" x2="441.396" y2="199.485" gradientUnits="userSpaceOnUse">
<stop stop-color="#70D1E7"/>
<stop offset="1" stop-color="#C4C4C4" stop-opacity="0"/>
</linearGradient>
<linearGradient id="paint27_linear_779_520" x1="177.477" y1="16.7201" x2="240.051" y2="266.755" gradientUnits="userSpaceOnUse">
<stop stop-color="white" stop-opacity="0.31"/>
<stop offset="1" stop-color="white" stop-opacity="0"/>
</linearGradient>
<linearGradient id="paint28_linear_779_520" x1="177.395" y1="-59" x2="65.1444" y2="336.274" gradientUnits="userSpaceOnUse">
<stop stop-color="white" stop-opacity="0.31"/>
<stop offset="1" stop-color="white" stop-opacity="0"/>
</linearGradient>
<linearGradient id="paint29_linear_779_520" x1="147.053" y1="58.9615" x2="181.88" y2="154.087" gradientUnits="userSpaceOnUse">
<stop stop-color="white" stop-opacity="0.31"/>
<stop offset="1" stop-color="white" stop-opacity="0"/>
</linearGradient>
<linearGradient id="paint30_linear_779_520" x1="241.894" y1="58.9615" x2="261.144" y2="163.285" gradientUnits="userSpaceOnUse">
<stop stop-color="white" stop-opacity="0.31"/>
<stop offset="1" stop-color="white" stop-opacity="0"/>
</linearGradient>
<linearGradient id="paint31_linear_779_520" x1="222.394" y1="118.962" x2="259.436" y2="212.107" gradientUnits="userSpaceOnUse">
<stop stop-color="white" stop-opacity="0.31"/>
<stop offset="1" stop-color="white" stop-opacity="0"/>
</linearGradient>
<linearGradient id="paint32_linear_779_520" x1="290.543" y1="118.962" x2="327.585" y2="212.107" gradientUnits="userSpaceOnUse">
<stop stop-color="white" stop-opacity="0.31"/>
<stop offset="1" stop-color="white" stop-opacity="0"/>
</linearGradient>
</defs>
</svg>
