<svg width="162" height="32" fill="none" xmlns="http://www.w3.org/2000/svg"><g clip-path="url(#clip0_904_1039)" fill="#282938"><path d="M24.723 14.083a4.362 4.362 0 00-1.242 3.492l-.021-.022a5.198 5.198 0 01-1.493 4.098 5.155 5.155 0 01-4.081 1.499l.021.021a4.353 4.353 0 00-2.573.56 4.378 4.378 0 00-1.785 1.943 4.4 4.4 0 00.866 4.965 4.352 4.352 0 004.946.866 4.374 4.374 0 001.934-1.794 4.4 4.4 0 00.556-2.584l.022.021a5.197 5.197 0 011.493-4.097 5.155 5.155 0 014.081-1.499l-.022-.021a4.343 4.343 0 003.845-1.69 4.385 4.385 0 00.642-4.165 4.375 4.375 0 00-3.157-2.778 4.341 4.341 0 00-4.028 1.185h-.004zm-8.759 6.277l-.023-.021a4.296 4.296 0 003.48-1.245 4.33 4.33 0 001.243-3.493l.022.021a5.198 5.198 0 011.493-4.097 5.155 5.155 0 014.081-1.499l-.022-.021a4.354 4.354 0 002.574-.558 4.378 4.378 0 001.786-1.942 4.401 4.401 0 00-.864-4.967 4.352 4.352 0 00-4.947-.868 4.374 4.374 0 00-1.934 1.795 4.4 4.4 0 00-.555 2.584l-.022-.023a5.196 5.196 0 01-1.492 4.098 5.153 5.153 0 01-4.082 1.498l.022.023a4.294 4.294 0 00-3.48 1.245A4.332 4.332 0 0012 16.383l-.021-.021a5.2 5.2 0 01-1.493 4.097 5.156 5.156 0 01-4.081 1.499l.021.021a4.354 4.354 0 00-2.574.558 4.378 4.378 0 00-1.787 1.942 4.401 4.401 0 00.865 4.967 4.352 4.352 0 004.947.868 4.374 4.374 0 001.934-1.795 4.4 4.4 0 00.555-2.584l.023.021a5.198 5.198 0 011.492-4.097 5.155 5.155 0 014.082-1.499zm-7.959-2.392a4.356 4.356 0 001.24-3.492l.023.021a5.199 5.199 0 011.494-4.099 5.156 5.156 0 014.083-1.497l-.023-.022a4.352 4.352 0 002.573-.558 4.377 4.377 0 001.786-1.941 4.4 4.4 0 00-.864-4.965 4.36 4.36 0 00-4.945-.868 4.374 4.374 0 00-1.934 1.793 4.4 4.4 0 00-.556 2.584l-.021-.022A5.199 5.199 0 019.368 9a5.157 5.157 0 01-4.081 1.498l.021.022a4.343 4.343 0 00-3.845 1.69 4.385 4.385 0 00-.64 4.165 4.352 4.352 0 005.322 2.704 4.355 4.355 0 001.862-1.111h-.002zM44.788 6.076h3.527v17.231h-3.527V6.077zm5.525 11.331a6.274 6.274 0 011.037-3.482 6.235 6.235 0 012.792-2.315 6.206 6.206 0 016.798 1.34 6.28 6.28 0 011.362 6.82 6.25 6.25 0 01-2.295 2.812 6.213 6.213 0 01-3.464 1.056 6.138 6.138 0 01-4.417-1.802 6.186 6.186 0 01-1.813-4.428zm8.934 0a2.723 2.723 0 00-.492-1.488 2.706 2.706 0 00-2.786-1.09c-.52.113-.994.377-1.365.76a2.72 2.72 0 001.94 4.61 2.625 2.625 0 001.96-.801 2.65 2.65 0 00.743-1.99zm17.583-5.902v11.207c0 3.966-3.08 5.642-6.206 5.642a5.991 5.991 0 01-3.186-.645 6.021 6.021 0 01-2.386-2.216l3.009-1.747a2.677 2.677 0 002.68 1.487 2.334 2.334 0 001.932-.622 2.352 2.352 0 00.724-1.904V21.63a4.177 4.177 0 01-3.433 1.534 5.963 5.963 0 01-4.102-1.821 6.011 6.011 0 010-8.348 5.964 5.964 0 014.102-1.821 4.162 4.162 0 013.433 1.534v-1.204l3.433.002zM73.4 17.17a2.87 2.87 0 00-1.676-2.728 2.84 2.84 0 00-3.146.545 2.865 2.865 0 00-.669 3.133 2.842 2.842 0 002.647 1.791 2.653 2.653 0 002.647-1.652c.14-.346.207-.716.197-1.09zm5.427.237a6.273 6.273 0 011.038-3.482 6.235 6.235 0 012.791-2.315 6.206 6.206 0 016.799 1.34 6.278 6.278 0 011.362 6.82 6.25 6.25 0 01-2.295 2.812 6.213 6.213 0 01-3.464 1.056 6.137 6.137 0 01-4.418-1.802 6.186 6.186 0 01-1.813-4.428zm8.935 0a2.724 2.724 0 00-.492-1.488 2.706 2.706 0 00-2.786-1.09A2.704 2.704 0 0082.4 16.98a2.727 2.727 0 001.164 2.766c.443.295.963.453 1.495.453a2.626 2.626 0 001.96-.801 2.65 2.65 0 00.744-1.99zm5.172-9.065A2.13 2.13 0 0194.24 6.38a2.106 2.106 0 012.306.461 2.125 2.125 0 01.458 2.315 2.119 2.119 0 01-1.955 1.312 2.134 2.134 0 01-1.49-.629 2.15 2.15 0 01-.625-1.496zm.356 3.163h3.528v11.803h-3.533l.005-11.803zm18.755 5.902a5.938 5.938 0 01-3.375 5.67 5.89 5.89 0 01-2.244.56 4.4 4.4 0 01-3.502-1.44v5.832h-3.527V11.506h3.527v1.108a4.396 4.396 0 013.502-1.439 5.89 5.89 0 014.101 1.943 5.926 5.926 0 011.518 4.29zm-3.527 0a2.808 2.808 0 00-1.774-2.544 2.788 2.788 0 00-3.026.654 2.828 2.828 0 00-.746 1.439 2.811 2.811 0 001.203 2.862 2.79 2.79 0 001.547.468 2.676 2.676 0 002.041-.81 2.693 2.693 0 00.755-2.069zm14.41 2.36c0 2.714-2.351 3.87-4.889 3.87a5.133 5.133 0 01-2.957-.625 5.16 5.16 0 01-2.098-2.183l3.055-1.747a1.938 1.938 0 001.996 1.393c.845 0 1.269-.26 1.269-.731 0-1.3-5.784-.614-5.784-4.697 0-2.574 2.163-3.872 4.609-3.872a5.128 5.128 0 012.635.634 5.15 5.15 0 011.948 1.892l-3.009 1.628a1.713 1.713 0 00-1.574-1.038c-.612 0-.989.238-.989.66.005 1.346 5.788.448 5.788 4.816zm12.884-8.261v11.803h-3.527v-1.11a4.01 4.01 0 01-3.36 1.44c-2.375 0-4.394-1.699-4.394-4.888v-7.245h3.527v6.726a1.96 1.96 0 00.527 1.55 1.94 1.94 0 001.518.596c1.293 0 2.186-.754 2.186-2.43v-6.439l3.523-.003zm20.223 4.556v7.246h-3.527v-6.94c0-1.18-.565-1.935-1.693-1.935-1.175 0-1.835.826-1.835 2.219v6.656h-3.525v-6.94c0-1.18-.564-1.935-1.693-1.935-1.176 0-1.834.826-1.834 2.219v6.656h-3.527V11.505h3.527v1.085a3.6 3.6 0 013.151-1.415 3.483 3.483 0 011.743.37c.54.274 1 .682 1.336 1.187a3.873 3.873 0 013.409-1.557c2.699.001 4.468 1.936 4.468 4.887zm2.983-4.629a2.623 2.623 0 002.617-2.628 2.623 2.623 0 00-2.617-2.627 2.623 2.623 0 00-2.618 2.627 2.623 2.623 0 002.618 2.628z"/></g><defs><clipPath id="clip0_904_1039"><path fill="#fff" d="M0 0h161.815v32H0z"/></clipPath></defs></svg>