<svg width="155" height="32" fill="none" xmlns="http://www.w3.org/2000/svg"><g clip-path="url(#clip0_904_1069)" fill="#282938"><path d="M50.335 25.492a3.465 3.465 0 01-2.175-.621 2.022 2.022 0 01-.82-1.697V11.168a.335.335 0 01.225-.36.341.341 0 01.152-.015h2.188c.248 0 .365.13.365.375v11.074c0 .492.221.738.677.738a1.88 1.88 0 00.573-.065c.26 0 .404.078.417.31l.195 1.62a.337.337 0 01-.312.401c-.48.158-.98.24-1.485.246zm12.308-1.385a6.155 6.155 0 01-7.814 0 5.166 5.166 0 01-1.509-3.646c0-1.365.542-2.675 1.509-3.645a6.182 6.182 0 017.814 0 5.243 5.243 0 011.471 3.639c0 1.356-.527 2.66-1.471 3.64v.012zm-5.757-1.71a2.782 2.782 0 003.725 0 2.891 2.891 0 000-3.807 2.783 2.783 0 00-3.724 0 2.892 2.892 0 000 3.808zm19.275-6.645c.248 0 .365.13.365.376v9.286a4.204 4.204 0 01-1.445 3.328 5.489 5.489 0 01-3.79 1.296 6.12 6.12 0 01-3.53-.972 3.897 3.897 0 01-1.706-2.59c0-.26 0-.376.352-.376h2.188a.484.484 0 01.43.298 1.7 1.7 0 00.794.92c.45.231.952.347 1.459.337a2.316 2.316 0 001.68-.596 2.199 2.199 0 00.612-1.62v-.815a4.38 4.38 0 01-2.71.842 5.078 5.078 0 01-3.698-1.412 5.165 5.165 0 01-1.464-3.6c0-1.344.525-2.635 1.464-3.6a5.096 5.096 0 013.699-1.4c1-.026 1.98.29 2.774.894v-.207a.336.336 0 01.364-.376l2.162-.013zm-5.053 7.408a2.303 2.303 0 001.784-.764 3.162 3.162 0 000-3.885 2.277 2.277 0 00-1.77-.751 2.357 2.357 0 00-1.811.764 2.736 2.736 0 00-.703 1.942 2.788 2.788 0 00.69 1.93 2.358 2.358 0 001.81.764zm16.657.946a6.182 6.182 0 01-7.814 0 5.256 5.256 0 01-1.472-3.645c0-1.359.527-2.665 1.472-3.646a6.194 6.194 0 017.814 0 5.243 5.243 0 011.471 3.64c0 1.355-.527 2.66-1.47 3.638v.013zm-5.77-1.71a2.609 2.609 0 001.876.713 2.619 2.619 0 001.862-.712 2.93 2.93 0 000-3.808 2.609 2.609 0 00-1.862-.712 2.62 2.62 0 00-1.875.712 2.93 2.93 0 000 3.808zm11.944-8.845a1.894 1.894 0 01-2.488 0 1.566 1.566 0 01-.365-1.76 1.59 1.59 0 01.365-.52 1.933 1.933 0 012.488 0 1.567 1.567 0 01.494 1.14 1.561 1.561 0 01-.494 1.14zm.273 11.941a3.517 3.517 0 01-2.175-.621 2.047 2.047 0 01-.807-1.697V16.13a.336.336 0 01.378-.376h2.188c.247 0 .364.13.364.376v6.113c0 .492.222.738.664.738a2.04 2.04 0 00.587-.065c.26 0 .403.078.416.31l.196 1.62a.335.335 0 01-.313.401 4.964 4.964 0 01-1.498.247zm9.86-10.05a5.132 5.132 0 013.725 1.399 5.294 5.294 0 011.433 3.62 5.294 5.294 0 01-1.433 3.62 5.09 5.09 0 01-3.725 1.412 4.498 4.498 0 01-2.722-.843v4.676c0 .246-.13.363-.377.363h-2.188a.316.316 0 01-.279-.086.31.31 0 01-.086-.277v-10.62a.67.67 0 00-.457-.737.683.683 0 00-.311-.027h-.43c-.287 0-.43-.104-.43-.311v-1.529a.412.412 0 01.3-.427 3.93 3.93 0 011.406-.233 2.42 2.42 0 012.358 1.295 4.408 4.408 0 013.216-1.295zm-2.031 6.955a2.484 2.484 0 001.797.763 2.495 2.495 0 001.797-.763 2.788 2.788 0 00.716-1.982 2.75 2.75 0 00-.716-1.981 2.484 2.484 0 00-1.797-.764 2.499 2.499 0 00-1.797.764 2.854 2.854 0 00-.691 1.981c-.026.723.22 1.43.691 1.982zm13.334 3.095a6.308 6.308 0 01-3.347-.803 3.16 3.16 0 01-1.51-2.292c0-.26.091-.39.377-.39h1.915a.493.493 0 01.43.286c.273.699.989 1.049 2.135 1.049.401.018.798-.062 1.16-.233a.757.757 0 00.443-.634c0-.338-.209-.57-.625-.726a7.092 7.092 0 00-1.524-.324 14.59 14.59 0 01-1.824-.324 3.002 3.002 0 01-1.524-.868 2.786 2.786 0 01-.521-1.002 2.745 2.745 0 01.306-2.19c.199-.324.463-.604.776-.823a5.388 5.388 0 013.151-.829 5.781 5.781 0 013.074.765 2.896 2.896 0 011.433 2.033c0 .259-.118.389-.352.389h-1.927a.412.412 0 01-.233-.057.413.413 0 01-.159-.176 1.3 1.3 0 00-.676-.687 2.307 2.307 0 00-1.121-.259 2.276 2.276 0 00-1.107.22.648.648 0 00-.416.596.832.832 0 00.624.764 7.121 7.121 0 001.55.389c.61.08 1.214.192 1.811.336a3 3 0 011.524.868 2.435 2.435 0 01.638 1.774 2.591 2.591 0 01-1.212 2.253 5.714 5.714 0 01-3.269.895zm18.247-.647a.348.348 0 01-.168.356.353.353 0 01-.131.045 5.059 5.059 0 01-1.472.246 2.903 2.903 0 01-2.605-1.126 4.728 4.728 0 01-3.32 1.126 4.059 4.059 0 01-3.048-1.178 4.236 4.236 0 01-1.159-3.122V16.13c0-.247.117-.376.364-.376h2.189c.246 0 .364.13.364.376v4.675a2.282 2.282 0 00.56 1.593 1.952 1.952 0 001.497.609 2.172 2.172 0 001.564-.57c.198-.203.352-.445.454-.71.1-.265.145-.548.132-.831V16.13c0-.247.116-.376.364-.376h2.214c.248 0 .364.13.364.376v6.1c0 .505.222.75.653.75a2.01 2.01 0 00.598-.064.344.344 0 01.291.052.338.338 0 01.139.259l.156 1.619zm20.695 0a.327.327 0 01-.3.402c-.483.156-.989.24-1.498.246a3.494 3.494 0 01-2.175-.622 2.014 2.014 0 01-.872-1.697v-3.043a2.282 2.282 0 00-.548-1.593 1.857 1.857 0 00-1.458-.609 1.634 1.634 0 00-1.302.57c-.344.434-.52.976-.495 1.528v4.78c0 .245-.118.375-.364.375h-2.202a.344.344 0 01-.281-.096.332.332 0 01-.08-.129.323.323 0 01-.017-.15V20.13a2.385 2.385 0 00-.508-1.593 1.686 1.686 0 00-1.302-.609 1.904 1.904 0 00-1.432.57c-.372.42-.564.969-.534 1.528v4.78a.336.336 0 01-.226.36.341.341 0 01-.152.015h-2.123c-.247 0-.365-.13-.365-.376v-6.1a.664.664 0 00-.191-.574.675.675 0 00-.576-.19h-.431c-.287 0-.43-.104-.43-.31v-1.529a.418.418 0 01.3-.427c.45-.163.927-.242 1.407-.234a2.449 2.449 0 012.318 1.192 4.403 4.403 0 013.308-1.192 3.756 3.756 0 013.086 1.373 4.31 4.31 0 013.413-1.373 4.134 4.134 0 013.086 1.179 4.212 4.212 0 011.16 3.121v2.5c0 .492.22.738.637.738.203.01.405-.012.6-.065.269 0 .412.104.429.311l.118 1.62zM1.601 14.07a17.72 17.72 0 016.322-9.688c3.135-2.438 7-3.762 10.98-3.762 3.98 0 7.845 1.324 10.98 3.761a17.722 17.722 0 016.322 9.689h-1.563a12.67 12.67 0 00-7.384 2.24 3.74 3.74 0 01-.39.246h-.183a3.721 3.721 0 01-.39-.246 13.297 13.297 0 00-7.392-2.241c-2.633 0-5.206.78-7.39 2.241-.126.09-.256.173-.391.246h-.183a3.732 3.732 0 01-.39-.246 12.67 12.67 0 00-7.385-2.24H1.601zm30.228 8.12a4.405 4.405 0 012.813-.92h2.097v-4.157h-2.097a8.341 8.341 0 00-4.988 1.58 4.758 4.758 0 01-5.626 0 8.891 8.891 0 00-10.12 0 4.758 4.758 0 01-5.626 0 8.341 8.341 0 00-5.053-1.58H1.067v4.158h2.097a4.405 4.405 0 012.813.92 8.864 8.864 0 0010.107 0 4.43 4.43 0 012.813-.92 4.379 4.379 0 012.813.92 8.89 8.89 0 0010.12 0zm0 7.434a4.405 4.405 0 012.813-.92h2.097v-4.157h-2.097a8.34 8.34 0 00-4.988 1.58 4.758 4.758 0 01-5.626 0 8.89 8.89 0 00-10.12 0 4.758 4.758 0 01-5.626 0 8.34 8.34 0 00-5.053-1.58H1.067v4.158h2.097a4.405 4.405 0 012.813.92 8.864 8.864 0 0010.107 0 4.431 4.431 0 012.813-.92 4.379 4.379 0 012.813.92 8.89 8.89 0 0010.12 0z"/></g><defs><clipPath id="clip0_904_1069"><path fill="#fff" transform="translate(.724)" d="M0 0h153.743v32H0z"/></clipPath></defs></svg>