<svg width="137" height="32" fill="none" xmlns="http://www.w3.org/2000/svg"><path d="M39.74 9.9h3.429v13.867H39.74V9.9zm4.796 8.65c0-3.434 2.137-5.493 5.341-5.493 3.205 0 5.34 2.059 5.34 5.494 0 3.434-2.06 5.515-5.34 5.515s-5.34-2.006-5.34-5.515zm7.285 0c0-1.887-.737-2.997-1.912-2.997-1.175 0-1.901 1.067-1.901 2.998 0 1.93.726 2.987 1.901 2.987s1.934-1.056 1.934-2.977l-.022-.01zm4.764 5.932h3.312a1.772 1.772 0 001.858 1.066c1.314 0 1.998-.704 1.998-1.75v-1.92h.01a3.276 3.276 0 01-3.204 1.867c-2.51 0-4.177-1.909-4.177-5.194 0-3.286 1.592-5.334 4.273-5.334a3.282 3.282 0 013.204 2.016h-.096v-1.93h3.397v10.39c0 2.506-2.222 4.074-5.49 4.074-2.97-.01-4.871-1.365-5.063-3.275l-.022-.01zm7.178-5.931c0-1.675-.769-2.731-1.986-2.731-1.218 0-1.966 1.067-1.966 2.73 0 1.665.737 2.646 1.965 2.646 1.229 0 1.987-.907 1.987-2.645zm4.754 0c0-3.435 2.136-5.494 5.34-5.494 3.205 0 5.341 2.059 5.341 5.494 0 3.434-2.072 5.515-5.34 5.515-3.27 0-5.32-2.006-5.32-5.515h-.021zm7.285 0c0-1.888-.748-2.998-1.913-2.998-1.164 0-1.9 1.067-1.9 2.998 0 1.93.725 2.987 1.9 2.987 1.175 0 1.934-1.056 1.934-2.977l-.021-.01zm4.785-7.777a1.749 1.749 0 012.045-1.799 1.753 1.753 0 011.417 1.355 1.746 1.746 0 01-.73 1.818c-.29.196-.63.3-.98.301a1.69 1.69 0 01-1.73-1.664l-.022-.01zm0 2.518h3.471V23.81H80.64l-.053-10.518zm15.958 5.259c0 3.424-1.538 5.408-4.155 5.408a3.284 3.284 0 01-3.204-1.952h-.064v5.184h-3.43V13.324H89.1V15.2h.065a3.295 3.295 0 013.203-2.027c2.692-.021 4.241 1.953 4.241 5.387l-.064-.01zm-3.492 0c0-1.664-.78-2.742-1.988-2.742-1.207 0-1.965 1.067-1.975 2.742-.011 1.674.768 2.73 1.975 2.73s2.052-.992 2.052-2.72l-.064-.01zm9.346-5.505c2.874 0 4.657 1.355 4.678 3.531h-3.129c0-.757-.63-1.227-1.57-1.227-.94 0-1.389.363-1.389.907s.395.715 1.186.875l2.2.448c2.137.448 2.991 1.301 2.991 2.89 0 2.134-1.976 3.585-4.913 3.585-2.938 0-4.85-1.408-4.989-3.552h3.322c.096.779.715 1.237 1.72 1.237 1.004 0 1.474-.32 1.474-.885 0-.566-.32-.662-1.143-.832l-1.987-.416c-2.061-.438-3.14-1.515-3.14-3.126.064-2.09 1.858-3.424 4.753-3.424l-.064-.01zM118.848 23.8h-3.321v-1.973h-.064a3.009 3.009 0 01-3.066 2.186 3.664 3.664 0 01-3.771-3.957v-6.753h3.429v6.017c0 1.237.652 1.91 1.72 1.91a1.752 1.752 0 001.72-2.006v-5.92h3.418l-.065 10.496zm1.656-10.507h3.333v2.027h.075a3.05 3.05 0 013.001-2.22 2.729 2.729 0 012.927 2.23h.15a3.206 3.206 0 013.204-2.23 3.34 3.34 0 012.526 1.016 3.33 3.33 0 01.925 2.558v7.137h-3.451v-6.262c0-1.067-.502-1.664-1.473-1.664a1.498 1.498 0 00-1.457 1.06 1.506 1.506 0 00-.05.636v6.23h-3.269v-6.294c0-1.067-.523-1.632-1.463-1.632a1.532 1.532 0 00-1.154.512 1.537 1.537 0 00-.374 1.205v6.209h-3.428l-.022-10.518zm-87.546-2.487a10.53 10.53 0 00-1.842-5.949 10.567 10.567 0 00-16.488-1.176H1.299v28.097h28.146V18.647a10.528 10.528 0 003.514-7.84zm-5.415 0a5.137 5.137 0 01-3.171 4.758 5.154 5.154 0 01-5.615-1.108 5.139 5.139 0 013.637-8.78c1.364 0 2.672.54 3.637 1.502a5.139 5.139 0 011.512 3.628zM24.028 26.37H6.713V9.089h5.277a10.177 10.177 0 00-.16 1.717 10.553 10.553 0 003.097 7.457 10.583 10.583 0 007.467 3.093c.548-.003 1.094-.05 1.634-.139v5.153z" fill="#282938"/></svg>