<svg width="136" height="32" fill="none" xmlns="http://www.w3.org/2000/svg"><g clip-path="url(#clip0_904_1066)" fill="#282938"><path d="M40.134 9.347h3.382v13.658h-3.382V9.347zm4.724 8.501c0-3.378 2.075-5.393 5.277-5.393s5.276 2.015 5.276 5.393c0 3.378-2.029 5.405-5.276 5.405s-5.277-1.97-5.277-5.405zm7.16 0c0-1.858-.733-2.95-1.883-2.95s-1.872 1.126-1.872 2.95c0 1.824.71 2.928 1.872 2.928 1.161 0 1.883-1.036 1.883-2.917v-.011zm4.668 5.821h3.247a1.746 1.746 0 001.826 1.014c1.286 0 1.962-.698 1.962-1.712V21.08h-.067a3.2 3.2 0 01-3.079 1.847c-2.469 0-4.104-1.88-4.104-5.112 0-3.231 1.556-5.27 4.15-5.27a3.24 3.24 0 013.111 1.982v-1.88h3.383v10.246c0 2.466-2.176 3.998-5.39 3.998-2.987 0-4.848-1.34-5.04-3.21v-.01zm7.047-5.832c0-1.644-.756-2.68-1.951-2.68s-1.928 1.024-1.928 2.68c0 1.655.721 2.59 1.928 2.59 1.206 0 1.95-.913 1.95-2.579v-.011zm4.656 0c0-3.378 2.075-5.394 5.277-5.394s5.288 2.016 5.288 5.394-2.03 5.404-5.288 5.404c-3.258 0-5.277-1.959-5.277-5.393v-.011zm7.16 0c0-1.858-.733-2.95-1.883-2.95s-1.815 1.137-1.815 2.972.71 2.928 1.86 2.928c1.15 0 1.838-1.047 1.838-2.928v-.022zm4.69-7.646A1.721 1.721 0 0182.26 8.45a1.726 1.726 0 011.388 1.324 1.72 1.72 0 01-1.65 2.096 1.65 1.65 0 01-1.627-.995 1.642 1.642 0 01-.132-.66v-.023zm0 2.477h3.383v10.337h-3.383V12.668zm15.662 5.169c0 3.378-1.5 5.303-4.07 5.303a3.226 3.226 0 01-3.158-1.914h-.068v5.09h-3.382v-13.67h3.382v1.846h.068a3.232 3.232 0 013.135-1.993c2.593.046 4.137 1.982 4.137 5.36l-.044-.022zm-3.383 0c0-1.644-.756-2.691-1.94-2.691-1.183 0-1.939 1.058-1.95 2.69-.011 1.633.767 2.68 1.95 2.68 1.184 0 1.94-1.024 1.94-2.657v-.022zm9.189-5.405c2.807 0 4.51 1.329 4.589 3.457h-3.078c0-.732-.609-1.194-1.544-1.194-.937 0-1.354.36-1.354.89 0 .529.373.698 1.128.855l2.164.44c2.064.439 2.943 1.272 2.943 2.837 0 2.14-1.95 3.513-4.825 3.513-2.876 0-4.758-1.373-4.905-3.48h3.258c.102.767.711 1.217 1.703 1.217.992 0 1.443-.327 1.443-.867s-.315-.653-1.127-.822l-1.95-.417c-2.02-.416-3.08-1.486-3.08-3.062.024-2.027 1.84-3.345 4.635-3.345v-.022zm16.135 10.55h-3.259v-1.925h-.068a2.935 2.935 0 01-2.998 2.15 3.6 3.6 0 01-3.59-2.373 3.578 3.578 0 01-.199-1.511v-6.677h3.383v5.9c0 1.227.631 1.88 1.68 1.88a1.718 1.718 0 001.299-.585 1.719 1.719 0 00.415-1.363v-5.832h3.382l-.045 10.336zm1.635-10.336h3.27v1.993h.067a3 3 0 012.943-2.184 2.698 2.698 0 012.875 2.251h.068a3.18 3.18 0 013.18-2.252 3.285 3.285 0 013.196 2.162c.156.433.219.893.185 1.352v7.037h-3.381v-6.137c0-1.126-.508-1.644-1.455-1.644a1.483 1.483 0 00-1.118.498 1.465 1.465 0 00-.359 1.169v6.114h-3.213v-6.182c0-1.036-.508-1.599-1.433-1.599a1.514 1.514 0 00-1.442 1.06 1.527 1.527 0 00-.057.63v6.09h-3.383l.057-10.358zm-88.803-2.68a14.917 14.917 0 00-2.255-3.625A15.25 15.25 0 0017.242.756 15.274 15.274 0 005.637 5.388a15.23 15.23 0 00-4.245 11.74 15.22 15.22 0 005.965 10.967c1.1.853 2.314 1.547 3.608 2.06a15.114 15.114 0 005.717 1.126 15.299 15.299 0 0010.785-4.48 15.257 15.257 0 004.47-10.777 15.059 15.059 0 00-1.263-6.058zM16.67 3.852c1.761 0 3.5.384 5.097 1.126-.39.168-.799.285-1.218.35a6.45 6.45 0 00-5.469 5.461 3.376 3.376 0 01-3.055 2.983c-1.38.2-2.657.839-3.643 1.823a6.45 6.45 0 00-1.825 3.638 3.274 3.274 0 01-.891 1.96 12.146 12.146 0 01.72-11.711A12.171 12.171 0 0116.682 3.83l-.012.022zM7.346 23.906c.135-.124.27-.237.406-.372a6.167 6.167 0 001.826-3.637c.073-.777.42-1.504.981-2.049a3.193 3.193 0 012.041-.968 6.464 6.464 0 003.643-1.823 6.448 6.448 0 001.825-3.638 3.29 3.29 0 01.981-2.15 3.238 3.238 0 012.064-.935 6.182 6.182 0 003.382-1.61 11.82 11.82 0 012.661 3.13.966.966 0 01-.146.157 3.237 3.237 0 01-2.041.991 6.442 6.442 0 00-3.647 1.82 6.427 6.427 0 00-1.822 3.641 3.376 3.376 0 01-3.033 3.018 6.498 6.498 0 00-3.657 1.82 6.482 6.482 0 00-1.845 3.64c-.06.551-.25 1.08-.552 1.544a12.278 12.278 0 01-3.067-2.579zm9.324 4.346a12.241 12.241 0 01-3.382-.473 6.5 6.5 0 00.721-2.252 3.377 3.377 0 013.022-3.017 6.464 6.464 0 003.65-1.82 6.449 6.449 0 001.83-3.641 3.375 3.375 0 013.021-3.018 6.443 6.443 0 002.887-1.126 12.167 12.167 0 01-2.117 10.524 12.197 12.197 0 01-9.632 4.767v.056z"/></g><defs><clipPath id="clip0_904_1066"><path fill="#fff" transform="translate(.815)" d="M0 0h135.055v32H0z"/></clipPath></defs></svg>