<svg width="17" height="16" viewBox="0 0 17 16" fill="none" xmlns="http://www.w3.org/2000/svg">
<g clip-path="url(#clip0_705_526)">
<path d="M5.69994 14.5005C11.7362 14.5005 15.0387 9.49829 15.0387 5.16173C15.0387 5.0211 15.0356 4.87735 15.0293 4.73673C15.6718 4.27213 16.2262 3.69666 16.6665 3.03735C16.0682 3.30355 15.4329 3.47741 14.7824 3.55298C15.4674 3.14243 15.9802 2.49747 16.2259 1.73767C15.5815 2.11953 14.8769 2.3889 14.1421 2.53423C13.6471 2.0082 12.9925 1.6599 12.2796 1.54319C11.5668 1.42648 10.8353 1.54786 10.1983 1.88855C9.56136 2.22925 9.05437 2.77029 8.75574 3.42803C8.4571 4.08577 8.38346 4.82357 8.54619 5.52735C7.2415 5.46188 5.96513 5.12296 4.79983 4.53255C3.63452 3.94215 2.6063 3.11345 1.78182 2.10017C1.36277 2.82265 1.23454 3.67759 1.42319 4.49122C1.61184 5.30485 2.10321 6.01612 2.79744 6.48048C2.27626 6.46393 1.76649 6.32361 1.31025 6.0711V6.11173C1.30979 6.86992 1.5719 7.60488 2.05204 8.19167C2.53219 8.77846 3.20072 9.18086 3.944 9.33048C3.46121 9.46257 2.95449 9.48182 2.46307 9.38673C2.67281 10.0388 3.08089 10.6091 3.63035 11.018C4.17982 11.427 4.84325 11.6542 5.52807 11.668C4.36545 12.5812 2.92929 13.0766 1.45088 13.0742C1.1887 13.0738 0.92677 13.0578 0.666504 13.0261C2.16841 13.9897 3.91552 14.5014 5.69994 14.5005Z" fill="white"/>
</g>
<defs>
<clipPath id="clip0_705_526">
<rect width="16" height="16" fill="white" transform="translate(0.666504)"/>
</clipPath>
</defs>
</svg>
